<svg width="22" height="15" viewBox="0 0 22 15" fill="none" xmlns="http://www.w3.org/2000/svg">
<path d="M2 0C0.89 0 0 0.785294 0 1.76471V12.3529C0 12.821 0.210714 13.2698 0.585786 13.6008C0.960859 13.9317 1.46957 14.1176 2 14.1176H10V12.45L20 3.62647V3.52941C20 3.06138 19.7893 2.61252 19.4142 2.28158C19.0391 1.95063 18.5304 1.76471 18 1.76471H10L8 0H2ZM20.04 6.29118C19.9 6.29118 19.76 6.34412 19.65 6.44118L18.65 7.32353L20.7 9.13235L21.7 8.25C21.92 8.06471 21.92 7.75588 21.7 7.57059L20.42 6.44118C20.3713 6.39496 20.3126 6.35786 20.2473 6.33209C20.182 6.30632 20.1115 6.29241 20.04 6.29118ZM18.07 7.83529L12 13.1824V15H14.06L20.12 9.64412L18.07 7.83529Z" fill="#999999"/>
</svg>
