<svg width="13" height="15" viewBox="0 0 13 15" fill="none" xmlns="http://www.w3.org/2000/svg">
<path d="M8.8035 0.472603C9.06583 0.169995 9.42159 0 9.79254 0C10.1635 0 10.5192 0.169995 10.7816 0.472603L12.5904 2.55971C12.8527 2.8624 13 3.2729 13 3.70091C13 4.12893 12.8527 4.53942 12.5904 4.84212L4.1968 14.5271C3.93451 14.8298 3.57875 14.9999 3.20776 15H1.39893C1.02791 15 0.672089 14.8299 0.409738 14.5272C0.147387 14.2245 0 13.8139 0 13.3858V11.2987C7.9232e-05 10.8707 0.147519 10.4602 0.409888 10.1575L8.8035 0.472603ZM8.68319 2.89384L10.492 4.98094L11.6014 3.70091L9.79254 1.61381L8.68319 2.89384ZM9.50296 6.12215L7.69414 4.03504L1.39893 11.2987V13.3858H3.20776L9.50296 6.12215Z" fill="#999999"/>
</svg>
