<svg width="37" height="25" viewBox="0 0 37 25" fill="none" xmlns="http://www.w3.org/2000/svg">
<path d="M7.55474 9.61538C7.55474 12.8846 8.87454 15.8654 10.9225 17.9327C6.46248 16.3942 2.54859 13.4615 0 9.61538C2.5941 5.72115 6.46248 2.83654 10.9225 1.29808C8.87454 3.36538 7.55474 6.34615 7.55474 9.61538ZM26.032 1.29808C28.08 3.36538 29.3998 6.34615 29.3998 9.61538C29.3998 10.2885 29.3542 10.9135 29.2632 11.5385C30.9016 11.6346 32.449 12.2596 33.7232 13.4135C34.952 12.3077 36.0443 11.0096 37 9.61538C34.3604 5.72115 30.492 2.83654 26.032 1.29808ZM23.802 13.7981C22.5732 15.0962 21.845 16.7788 21.7085 18.6058C20.7073 18.9904 19.615 19.2308 18.4772 19.2308C13.4711 19.2308 9.37515 14.9038 9.37515 9.61538C9.37515 4.32692 13.4711 0 18.4772 0C23.4834 0 27.5793 4.32692 27.5793 9.61538C27.5793 10.3365 27.4883 11.0577 27.3518 11.7308C26.032 12.0192 24.8032 12.7404 23.802 13.7981ZM23.0283 9.61538C23.0283 6.97115 20.9803 4.80769 18.4772 4.80769C15.9742 4.80769 13.9262 6.97115 13.9262 9.61538C13.9262 12.2596 15.9742 14.4231 18.4772 14.4231C20.9803 14.4231 23.0283 12.2596 23.0283 9.61538ZM18.4772 6.73077C16.9754 6.73077 15.7466 8.02885 15.7466 9.61538C15.7466 11.2019 16.9754 12.5 18.4772 12.5C19.9791 12.5 21.2079 11.2019 21.2079 9.61538C21.2079 8.02885 19.9791 6.73077 18.4772 6.73077ZM32.813 15.1442C33.8598 16.25 34.4059 17.6923 34.4059 19.2308C34.4059 20.7692 33.8598 22.2115 32.813 23.3173C31.7663 24.4231 30.401 25 28.9446 25C27.4883 25 26.123 24.4231 25.0763 23.3173C24.0295 22.2115 23.4834 20.7692 23.4834 19.2308C23.4834 17.6923 24.0295 16.25 25.0763 15.1442C26.123 14.0385 27.4883 13.4615 28.9446 13.4615C30.401 13.4615 31.7663 14.0385 32.813 15.1442ZM30.2189 19.2308L31.4932 17.8846C31.8573 17.5 31.8573 16.9231 31.4932 16.5385C31.1291 16.1538 30.583 16.1538 30.2189 16.5385L28.9446 17.8846L27.6704 16.5385C27.3063 16.1538 26.7601 16.1538 26.3961 16.5385C26.032 16.9231 26.032 17.5481 26.3961 17.8846L27.6704 19.2308L26.3961 20.5769C26.032 20.9615 26.032 21.5865 26.3961 21.9231C26.5781 22.1154 26.8057 22.2115 27.0332 22.2115C27.2608 22.2115 27.4883 22.1154 27.6704 21.9231L28.9446 20.5769L30.2189 21.9231C30.401 22.1154 30.6285 22.2115 30.8561 22.2115C31.0836 22.2115 31.3112 22.1154 31.4932 21.9231C31.8573 21.5385 31.8573 20.9615 31.4932 20.5769L30.2189 19.2308Z" fill="#666666"/>
</svg>
