<svg width="20" height="26" viewBox="0 0 20 26" fill="none" xmlns="http://www.w3.org/2000/svg">
<path d="M10 25.5C8.62006 25.4932 7.50115 24.3799 7.4875 23H12.4875C12.4901 23.3342 12.4264 23.6656 12.3 23.975C11.9721 24.7275 11.3023 25.2764 10.5 25.45H10.4938H10.475H10.4525H10.4412C10.296 25.4802 10.1483 25.497 10 25.5ZM20 21.75H0V19.25L2.5 18V11.125C2.43415 9.3614 2.83242 7.61141 3.655 6.05C4.4738 4.60189 5.87337 3.5736 7.5 3.225V0.5H12.5V3.225C15.7238 3.9925 17.5 6.7975 17.5 11.125V18L20 19.25V21.75Z" fill="#222222"/>
</svg>
