<svg width="14" height="16" viewBox="0 0 14 16" fill="none" xmlns="http://www.w3.org/2000/svg">
<path d="M1.83337 10.125H11.6544C11.789 10.1249 11.9208 10.0866 12.0344 10.0143C12.1479 9.94206 12.2385 9.83896 12.2956 9.71707C12.3527 9.59518 12.3739 9.45955 12.3567 9.32606C12.3394 9.19257 12.2846 9.06675 12.1984 8.96333L9.62504 5.875L12.1984 2.78667C12.2846 2.68325 12.3394 2.55743 12.3567 2.42394C12.3739 2.29045 12.3527 2.15482 12.2956 2.03293C12.2385 1.91104 12.1479 1.80794 12.0344 1.73569C11.9208 1.66345 11.789 1.62505 11.6544 1.625H1.83337V14.375" fill="#9EE8FF"/>
<path d="M1.83337 10.125H11.6544C11.789 10.1249 11.9208 10.0866 12.0344 10.0143C12.1479 9.94206 12.2385 9.83896 12.2956 9.71707C12.3527 9.59518 12.3739 9.45955 12.3567 9.32606C12.3394 9.19257 12.2846 9.06675 12.1984 8.96333L9.62504 5.875L12.1984 2.78667C12.2846 2.68325 12.3394 2.55743 12.3567 2.42394C12.3739 2.29045 12.3527 2.15482 12.2956 2.03293C12.2385 1.91104 12.1479 1.80794 12.0344 1.73569C11.9208 1.66345 11.789 1.62505 11.6544 1.625H1.83337V14.375" stroke="#9EE8FF" stroke-width="2" stroke-linecap="round" stroke-linejoin="round"/>
</svg>
