<svg width="22" height="20" viewBox="0 0 22 20" fill="none" xmlns="http://www.w3.org/2000/svg">
<path d="M22 10C22 15.5333 17.0867 20 11 20C4.91333 20 0 15.5333 0 10C0 4.46667 4.91333 0 11 0C17.0867 0 22 4.46667 22 10ZM9.53333 4.73333L10.1933 11C10.2667 11.2667 10.34 11.8 10.9267 11.8H11.1467C11.7333 11.8 11.88 11.2667 11.9533 10.9333L12.4667 4.8C12.54 4.33333 12.4667 4 12.2467 3.73333C12.0267 3.46667 11.66 3.33333 11.2933 3.33333H10.78C10.34 3.33333 10.0467 3.46667 9.82667 3.66667C9.53333 3.93333 9.46 4.33333 9.53333 4.73333ZM12.54 15.1333C12.54 14.3333 12.0267 13.8667 11.1467 13.8667H10.8533C9.97333 13.8667 9.46 14.3333 9.46 15.1333V15.3333C9.46 16.1333 9.97333 16.6 10.8533 16.6H11.1467C12.0267 16.6 12.54 16.1333 12.54 15.3333V15.1333Z" fill="#78C077"/>
</svg>
