<svg width="29" height="40" viewBox="0 0 29 40" fill="none" xmlns="http://www.w3.org/2000/svg">
<g clip-path="url(#clip0)">
<path d="M2.39475 23.8013H10.4488V16.1987H2.39475V23.8013ZM3.99792 20.4394C4.22695 20.0955 4.72317 19.9809 5.0667 20.2483L6.02097 20.8978L8.54024 18.2999C8.84561 17.9943 9.30365 17.9943 9.60902 18.2999C9.91439 18.6055 9.91439 19.064 9.60902 19.3696L6.17365 22.8844L4.1506 21.5091C3.84524 21.2798 3.7689 20.7832 3.99792 20.4394ZM2.39475 38.4718H10.4488V30.8692H2.39475V38.4718ZM3.99792 35.1098C4.22695 34.766 4.72317 34.6896 5.0667 34.9188L6.02097 35.5683L8.54024 32.9704C8.84561 32.6648 9.30365 32.6648 9.60902 32.9704C9.91439 33.276 9.91439 33.7345 9.60902 34.0401L6.17365 37.5549L4.1506 36.1796C3.84524 35.9503 3.7689 35.4537 3.99792 35.1098ZM11.9756 39.2359C11.9756 39.6562 11.6321 40 11.2122 40H1.63133C1.21146 40 0.86792 39.6562 0.86792 39.2359V30.1051C0.86792 29.6848 1.21146 29.341 1.63133 29.341H11.2122C11.6321 29.341 11.9756 29.6848 11.9756 30.1051V39.2359ZM11.9756 24.5654C11.9756 24.9857 11.6321 25.3295 11.2122 25.3295H1.63133C1.21146 25.3295 0.86792 24.9857 0.86792 24.5654V15.4346C0.86792 15.0143 1.21146 14.6705 1.63133 14.6705H11.2122C11.6321 14.6705 11.9756 15.0143 11.9756 15.4346V24.5654ZM11.9756 9.89494C11.9756 10.3152 11.6321 10.659 11.2122 10.659H1.63133C1.21146 10.659 0.86792 10.3152 0.86792 9.89494V0.764088C0.86792 0.34384 1.21146 0 1.63133 0H11.2122C11.6321 0 11.9756 0.34384 11.9756 0.764088V9.89494ZM27.4729 37.5931H15.9835C15.5637 37.5931 15.2201 37.2493 15.2201 36.829C15.2201 36.4088 15.5637 36.0649 15.9835 36.0649H27.4729C27.8928 36.0649 28.2363 36.4088 28.2363 36.829C28.2363 37.2493 27.8928 37.5931 27.4729 37.5931ZM27.4729 33.6963H15.9835C15.5637 33.6963 15.2201 33.3524 15.2201 32.9322C15.2201 32.5119 15.5637 32.1681 15.9835 32.1681H27.4729C27.8928 32.1681 28.2363 32.5119 28.2363 32.9322C28.2363 33.3524 27.8928 33.6963 27.4729 33.6963ZM27.4729 22.9226H15.9835C15.5637 22.9226 15.2201 22.5788 15.2201 22.1586C15.2201 21.7383 15.5637 21.3945 15.9835 21.3945H27.4729C27.8928 21.3945 28.2363 21.7383 28.2363 22.1586C28.2363 22.5788 27.8928 22.9226 27.4729 22.9226ZM27.4729 19.0258H15.9835C15.5637 19.0258 15.2201 18.6819 15.2201 18.2617C15.2201 17.8415 15.5637 17.4976 15.9835 17.4976H27.4729C27.8928 17.4976 28.2363 17.8415 28.2363 18.2617C28.2363 18.6819 27.8928 19.0258 27.4729 19.0258ZM27.4729 8.25215H15.9835C15.5637 8.25215 15.2201 7.90831 15.2201 7.48806C15.2201 7.06781 15.5637 6.72397 15.9835 6.72397H27.4729C27.8928 6.72397 28.2363 7.06781 28.2363 7.48806C28.2363 7.90831 27.8928 8.25215 27.4729 8.25215ZM27.4729 4.3553H15.9835C15.5637 4.3553 15.2201 4.01146 15.2201 3.59121C15.2201 3.17096 15.5637 2.82713 15.9835 2.82713H27.4729C27.8928 2.82713 28.2363 3.17096 28.2363 3.59121C28.2363 4.01146 27.8928 4.3553 27.4729 4.3553ZM2.39475 9.13085H10.4488V1.52818H2.39475V9.13085ZM3.99792 5.76886C4.22695 5.42502 4.72317 5.34862 5.0667 5.57784L6.02097 6.22732L8.54024 3.62942C8.84561 3.32378 9.30365 3.32378 9.60902 3.62942C9.91439 3.93505 9.91439 4.39351 9.60902 4.69914L6.17365 8.21395L4.1506 6.83859C3.84524 6.60936 3.7689 6.15091 3.99792 5.76886Z" fill="#666666"/>
</g>
<defs>
<clipPath id="clip0">
<rect width="27.3684" height="40" fill="white" transform="translate(0.86792)"/>
</clipPath>
</defs>
</svg>
