<svg width="264" height="85" viewBox="0 0 264 85" fill="none" xmlns="http://www.w3.org/2000/svg">
<path d="M125.646 72.9861C126.57 74.1517 127.052 75.6239 127.003 77.129C127.028 77.9185 126.877 78.7033 126.559 79.4221C126.242 80.1408 125.768 80.7739 125.174 81.2719C123.84 82.3757 122.162 82.9389 120.455 82.8559H118.449C114.923 82.8909 111.462 81.8756 108.48 79.9315C105.458 77.9895 103.01 75.2291 101.401 71.9504C99.659 68.4267 98.7876 64.513 98.864 60.5575V32.1666H93.7318C92.3532 32.2377 91.0012 31.7577 89.9563 30.8263C89.4746 30.3982 89.092 29.864 88.8368 29.263C88.5816 28.662 88.4602 28.0095 88.4815 27.3536C88.4503 26.6695 88.5664 25.9869 88.8214 25.3548C89.0765 24.7227 89.4641 24.1569 89.9563 23.6981C90.9922 22.7446 92.3452 22.2424 93.7318 22.2968H98.864V5.72532C98.8288 4.18994 99.3797 2.70186 100.398 1.58244C101.501 0.563382 102.929 0 104.409 0C105.889 0 107.317 0.563382 108.421 1.58244C108.936 2.1289 109.337 2.77817 109.601 3.49053C109.865 4.20288 109.985 4.96333 109.954 5.72532V22.2968H119.452C120.839 22.2424 122.192 22.7446 123.228 23.6981C123.71 24.1645 124.092 24.7317 124.346 25.3619C124.6 25.9922 124.722 26.6711 124.702 27.3536C124.708 28.0071 124.579 28.6545 124.325 29.253C124.071 29.8515 123.697 30.3877 123.228 30.8263C122.183 31.7577 120.831 32.2377 119.452 32.1666H109.954V60.5575C109.861 63.3592 110.74 66.1033 112.432 68.2949C113.134 69.2579 114.043 70.0397 115.087 70.5788C116.131 71.1179 117.282 71.3997 118.449 71.4021H122.225C122.871 71.3994 123.511 71.5393 124.101 71.8125C124.691 72.0857 125.218 72.4858 125.646 72.9861Z" fill="#323239"/>
<path d="M196.721 21.6319C197.269 22.1851 197.696 22.8448 197.977 23.5699C198.258 24.295 198.386 25.0699 198.353 25.8464V76.4807C198.381 77.2475 198.251 78.012 197.97 78.7267C197.689 79.4413 197.264 80.0909 196.721 80.635C196.177 81.1791 195.525 81.6046 194.807 81.8845C194.089 82.1643 193.321 82.2924 192.551 82.2606C191.781 82.2887 191.013 82.159 190.296 81.8793C189.579 81.5997 188.927 81.1761 188.381 80.635C187.817 80.1029 187.375 79.4569 187.083 78.7403C186.791 78.0238 186.656 77.2533 186.688 76.4807V75.2163C184.24 77.6888 181.295 79.6175 178.046 80.8758C174.039 82.4015 169.752 83.0616 165.47 82.8125C161.188 82.5634 157.008 81.4107 153.206 79.4308C148.98 77.2006 145.542 73.7335 143.355 69.4966C140.998 65.1617 139.85 59.9237 139.85 53.7825V25.8464C139.85 25.0874 140 24.3358 140.291 23.6345C140.583 22.9333 141.01 22.2961 141.549 21.7594C142.088 21.2227 142.727 20.7969 143.431 20.5065C144.135 20.216 144.89 20.0665 145.652 20.0665C146.413 20.0665 147.168 20.216 147.872 20.5065C148.576 20.7969 149.215 21.2227 149.754 21.7594C150.293 22.2961 150.72 22.9333 151.012 23.6345C151.303 24.3358 151.454 25.0874 151.454 25.8464V53.7825C151.454 59.9237 153.146 64.5596 156.409 67.6904C159.673 70.8212 164.145 72.3866 169.585 72.3866C172.617 72.4423 175.62 71.7821 178.348 70.4599C180.828 69.3069 182.94 67.4943 184.452 65.2219C185.947 63.0652 186.729 60.4973 186.688 57.8766V25.8464C186.652 25.0642 186.784 24.2833 187.076 23.5563C187.368 22.8293 187.813 22.1731 188.381 21.6319C188.927 21.0907 189.579 20.6671 190.296 20.3875C191.013 20.1079 191.781 19.9781 192.551 20.0063C193.321 19.9745 194.089 20.1025 194.807 20.3824C195.525 20.6622 196.177 21.0877 196.721 21.6319Z" fill="#323239"/>
<path d="M263.999 78.045C264.011 78.6845 263.889 79.3194 263.642 79.9074C263.395 80.4954 263.028 81.023 262.565 81.4551C262.087 81.9332 261.515 82.3045 260.888 82.5456C260.261 82.7867 259.592 82.8923 258.923 82.8557C257.071 82.8557 255.757 82.2468 254.862 81.0288L236.946 59.1674L219.926 81.0288C219.413 81.6076 218.787 82.0695 218.087 82.3843C217.387 82.6991 216.63 82.8597 215.865 82.8557C215.205 82.8951 214.543 82.7906 213.925 82.5491C213.308 82.3076 212.747 81.9347 212.282 81.4551C211.442 80.5299 210.991 79.3053 211.028 78.045C211.016 76.4781 211.568 74.9612 212.581 73.7823L230.078 51.4946L211.446 29.085C210.382 27.8807 209.787 26.3212 209.774 24.7006C209.759 24.0898 209.869 23.4826 210.095 22.9168C210.321 22.351 210.659 21.8388 211.088 21.4122C211.562 20.9279 212.132 20.5524 212.761 20.3109C213.389 20.0693 214.06 19.9673 214.73 20.0116C215.545 19.9826 216.356 20.143 217.101 20.4806C217.845 20.8182 218.505 21.3242 219.03 21.9603L237.483 44.4916L254.026 21.9603C254.523 21.323 255.161 20.8144 255.887 20.4758C256.613 20.1372 257.408 19.9782 258.206 20.0116C258.871 19.98 259.535 20.0941 260.153 20.3462C260.771 20.5983 261.329 20.9826 261.789 21.4731C262.638 22.417 263.089 23.664 263.043 24.9441C263.067 26.6237 262.518 28.2596 261.491 29.5722L244.471 52.1644L262.386 74.0259C262.901 74.5547 263.309 75.1819 263.585 75.8716C263.862 76.5612 264.002 77.2998 263.999 78.045Z" fill="#323239"/>
<path d="M0.527344 56.6167C0.671284 57.3787 0.815224 58.0454 1.00714 58.7597C4.94151 74.7611 20.4391 85 38.9593 85C57.4796 85 73.0252 74.7611 76.9595 58.7597C77.2046 57.8856 77.381 56.994 77.4873 56.0929C63.1413 51.0924 49.0831 42.4727 39.775 36.0912C30.131 42.7108 15.4012 51.7115 0.527344 56.6167Z" fill="#FFE45C"/>
<path d="M76.0967 1.42108C76.4376 1.45986 76.7654 1.57376 77.0563 1.75444C76.7654 1.57376 76.4376 1.45986 76.0967 1.42108Z" fill="#FFE45C"/>
<g style="mix-blend-mode:multiply" opacity="0.3">
<path style="mix-blend-mode:multiply" opacity="0.3" d="M0.527344 56.6162C0.671284 57.3781 0.815224 58.0448 1.00714 58.7592C4.94151 74.7605 20.4391 84.9994 38.9593 84.9994C57.4796 84.9994 73.0252 74.7605 76.9595 58.7592C77.2046 57.8851 77.381 56.9935 77.4873 56.0923C63.1413 51.0919 49.0831 42.4721 39.775 36.0907C30.131 42.7103 15.4012 51.711 0.527344 56.6162Z" fill="url(#paint0_radial)"/>
<path style="mix-blend-mode:multiply" opacity="0.3" d="M76.0957 1.42087C76.4366 1.45965 76.7645 1.57354 77.0553 1.75423C76.7645 1.57354 76.4366 1.45965 76.0957 1.42087Z" fill="url(#paint1_radial)"/>
</g>
<g style="mix-blend-mode:multiply">
<path d="M44.0458 38.9005L38.2402 84.9995L32.0508 28.3282H32.4826C32.542 29.1919 32.792 30.032 33.2148 30.7892C33.6377 31.5463 34.2231 32.2019 34.9296 32.7095C36.321 33.7572 38.0003 34.9002 39.7756 36.1384C41.5508 37.3766 42.5104 37.9481 44.0458 38.9005Z" fill="#FFE45C"/>
</g>
<path d="M44.6214 32.664C43.23 33.7117 41.5507 34.8547 39.7754 36.0928C30.1315 42.7124 15.4016 51.7132 0.52778 56.6183C0.179328 54.6529 0.00274338 52.6612 0 50.6655L0 2.8044C0.0171504 2.4833 0.110244 2.17072 0.271744 1.89197C0.433243 1.61322 0.658609 1.37613 0.929592 1.19991C1.20058 1.02369 1.50956 0.913291 1.83153 0.877644C2.1535 0.841996 2.4794 0.882107 2.78284 0.994728C16.697 5.75702 30.5153 13.9482 39.7754 20.0915C41.5027 21.2345 43.134 22.2822 44.5255 23.2823C45.3027 23.7938 45.9418 24.4865 46.3871 25.2998C46.8323 26.1131 47.07 27.0223 47.0795 27.9479C47.0889 28.8735 46.8699 29.7872 46.4414 30.6094C46.0129 31.4315 45.388 32.1369 44.6214 32.664Z" fill="#7ADADE"/>
<path d="M77.9684 3.32588V50.7107C77.9775 52.5154 77.8168 54.3171 77.4886 56.0921C65.2057 51.8061 53.1147 44.8531 44.0465 38.9002C42.5111 37.9478 41.1197 36.9953 39.7763 36.0905C38.4328 35.1856 36.3217 33.7093 34.9303 32.6616C34.2238 32.154 33.6384 31.4984 33.2155 30.7413C32.7927 29.9841 32.5427 29.144 32.4833 28.2803C32.4391 27.3003 32.6498 26.3254 33.0952 25.4497C33.5406 24.5739 34.2056 23.8267 35.0262 23.2799C36.4177 22.2798 38.049 21.2321 39.7763 20.0415C48.6526 14.1839 61.7511 6.42137 75.0896 1.56383C76.481 1.03998 77.9684 1.99244 77.9684 3.32588Z" fill="url(#paint2_linear)"/>
<g style="mix-blend-mode:multiply" opacity="0.3">
<path style="mix-blend-mode:multiply" opacity="0.3" d="M75.8572 1.89758C76.0589 1.88467 76.2612 1.91143 76.4525 1.97631C76.6438 2.04119 76.8203 2.14291 76.9718 2.27565C77.1234 2.40839 77.2471 2.56953 77.3357 2.74982C77.4244 2.93011 77.4763 3.12601 77.4886 3.32627V50.7111C77.482 52.3059 77.3536 53.8979 77.1047 55.4734C64.5339 50.9492 52.347 43.8058 44.2864 38.5196L40.0641 35.7099L35.2182 32.281C34.5109 31.7985 33.9341 31.1507 33.5387 30.3946C33.1433 29.6386 32.9414 28.7976 32.9509 27.9458C32.9604 27.094 33.1809 26.2576 33.5931 25.5104C34.0052 24.7632 34.5963 24.1281 35.3141 23.6613L40.0641 20.4705C48.7485 14.7558 61.8951 6.89799 75.2335 1.99282L75.8572 1.89758ZM75.8572 1.42135C75.5947 1.42225 75.3346 1.47067 75.0896 1.56422C61.7511 6.42176 48.6526 14.1843 39.7763 20.0419C38.049 21.2325 36.4177 22.2802 35.0262 23.2803C34.2056 23.827 33.5406 24.5743 33.0952 25.4501C32.6498 26.3258 32.4391 27.3007 32.4833 28.2807C32.5427 29.1444 32.7927 29.9845 33.2155 30.7417C33.6384 31.4988 34.2238 32.1544 34.9303 32.662C36.3217 33.7097 38.001 34.8527 39.7763 36.0909C41.5515 37.3291 42.5111 37.9482 44.0465 38.9006C53.1147 44.8535 65.2057 51.8064 77.4886 56.0925C77.8168 54.3174 77.9775 52.5158 77.9684 50.7111V3.32627C77.956 3.0635 77.8916 2.80573 77.7788 2.56771C77.666 2.32968 77.507 2.11608 77.3109 1.93914C77.1148 1.76219 76.8855 1.62538 76.636 1.53653C76.3866 1.44768 76.1219 1.40854 75.8572 1.42135Z" fill="url(#paint3_linear)"/>
</g>
<path style="mix-blend-mode:overlay" opacity="0.3" d="M75.8572 2.85004C76.1931 2.85004 76.529 3.04053 76.529 3.32627V50.7111C76.5381 51.8569 76.474 53.0022 76.337 54.14C64.2461 49.6634 52.5869 42.8057 44.8142 37.71L40.5919 34.9003L35.7939 31.5191C35.2438 31.1446 34.7886 30.6487 34.4639 30.0704C34.1392 29.492 33.954 28.8468 33.9227 28.1855C33.884 27.4466 34.0408 26.7106 34.3774 26.0506C34.7141 25.3906 35.219 24.8295 35.8419 24.4232L40.5919 21.2325C49.2283 15.5654 62.2789 7.7552 75.5694 2.89766H75.8572V2.85004ZM75.8572 1.46897C75.5947 1.46988 75.3346 1.51829 75.0896 1.61184C61.7511 6.42176 48.6526 14.1843 39.7763 20.0419C38.049 21.2325 36.4177 22.2802 35.0262 23.2803C34.2056 23.827 33.5406 24.5743 33.0952 25.4501C32.6498 26.3258 32.4391 27.3007 32.4833 28.2807C32.5427 29.1444 32.7927 29.9845 33.2155 30.7417C33.6384 31.4988 34.2238 32.1544 34.9303 32.662C36.3217 33.7097 38.001 34.8527 39.7763 36.0909C41.5515 37.3291 42.5111 37.9482 44.0465 38.9006C53.1147 44.8535 65.2057 51.8064 77.4886 56.0925C77.8168 54.3174 77.9775 52.5158 77.9684 50.7111V3.32627C77.956 3.0635 77.8916 2.80573 77.7788 2.56771C77.666 2.32968 77.507 2.11608 77.3109 1.93914C77.1148 1.76219 76.8855 1.62538 76.636 1.53653C76.3866 1.44768 76.1219 1.40854 75.8572 1.42135V1.46897Z" fill="url(#paint4_linear)"/>
<path d="M44.6212 32.6622C43.2297 33.7099 41.5504 34.8529 39.7752 36.0911C37.9519 34.8529 36.3206 33.7099 34.9292 32.6622C34.2129 32.1643 33.6202 31.511 33.1963 30.7519C32.7723 29.9927 32.5281 29.1477 32.4822 28.2809C32.4426 27.3015 32.6554 26.3284 33.1004 25.4534C33.5453 24.5784 34.2078 23.8305 35.0251 23.2805C36.4166 22.2804 37.9999 21.2327 39.7752 20.0421L44.5252 23.2805C45.3024 23.792 45.9416 24.4847 46.3868 25.298C46.832 26.1113 47.0697 27.0205 47.0792 27.9461C47.0887 28.8717 46.8696 29.7854 46.4411 30.6076C46.0126 31.4297 45.3877 32.1351 44.6212 32.6622Z" fill="#EA4A46"/>
<path d="M44.6212 32.6622C43.2297 33.7099 41.5504 34.8529 39.7752 36.0911C37.9519 34.8529 36.3206 33.7099 34.9292 32.6622C34.2129 32.1643 33.6202 31.511 33.1963 30.7519C32.7723 29.9927 32.5281 29.1477 32.4822 28.2809C32.4426 27.3015 32.6554 26.3284 33.1004 25.4534C33.5453 24.5784 34.2078 23.8305 35.0251 23.2805C36.4166 22.2804 37.9999 21.2327 39.7752 20.0421L44.5252 23.2805C45.3024 23.792 45.9416 24.4847 46.3868 25.298C46.832 26.1113 47.0697 27.0205 47.0792 27.9461C47.0887 28.8717 46.8696 29.7854 46.4411 30.6076C46.0126 31.4297 45.3877 32.1351 44.6212 32.6622Z" fill="#86403D"/>
<g style="mix-blend-mode:overlay" opacity="0.24">
<path style="mix-blend-mode:overlay" opacity="0.24" d="M2.06314 1.56325L2.54294 1.6585C16.4092 6.42079 30.2274 14.6119 39.3916 20.6601L44.0936 23.8508C44.7818 24.2953 45.3489 24.9015 45.7445 25.6157C46.1401 26.3298 46.352 27.1298 46.3615 27.9447C46.371 28.7596 46.1777 29.5643 45.7989 30.2873C45.42 31.0103 44.8672 31.6294 44.1896 32.0896C42.6063 33.2801 40.9749 34.4231 39.3436 35.4708C29.8916 41.9951 15.6415 50.7102 1.10354 55.7106C0.85284 54.0393 0.724557 52.3522 0.7197 50.6625V2.80145C0.744005 2.46456 0.896206 2.14938 1.14556 1.91955C1.39492 1.68973 1.72286 1.56239 2.06314 1.56325ZM2.06314 0.848908C1.79849 0.842579 1.53517 0.888071 1.28823 0.982783C1.0413 1.0775 0.815586 1.21957 0.623991 1.4009C0.432395 1.58222 0.278672 1.79924 0.171605 2.03955C0.0645387 2.27987 0.00622631 2.53876 0 2.80145L0 50.6625C0.00274338 52.6582 0.179328 54.6499 0.52778 56.6154C15.4016 51.7102 30.1315 42.7095 39.7754 36.0899C41.5507 34.8517 43.23 33.7088 44.6214 32.6611C45.388 32.134 46.0129 31.4285 46.4414 30.6064C46.8699 29.7843 47.0889 28.8705 47.0795 27.9449C47.07 27.0194 46.8323 26.1102 46.3871 25.2969C45.9418 24.4835 45.3027 23.7908 44.5255 23.2793C43.134 22.2792 41.5027 21.2315 39.7754 20.0886C30.5153 13.9452 16.697 5.75407 2.78284 0.991777L2.06314 0.848908Z" fill="url(#paint5_linear)"/>
</g>
<path style="mix-blend-mode:multiply" opacity="0.2" d="M2.06314 2.2776H2.30304C16.0733 7.03989 29.8436 15.231 38.9598 21.2315L43.7098 24.4223C44.2963 24.8111 44.7779 25.3367 45.1125 25.953C45.4471 26.5692 45.6246 27.2575 45.6293 27.9576C45.634 28.6576 45.4659 29.3482 45.1397 29.9689C44.8134 30.5895 44.339 31.1215 43.7578 31.5181L38.9598 34.8993C29.6996 41.2808 15.8334 49.7577 1.6793 54.7105C1.52485 53.3665 1.44476 52.0152 1.4394 50.6625V2.80145C1.44544 2.72631 1.46641 2.65309 1.50108 2.58603C1.53575 2.51896 1.58345 2.45937 1.64143 2.41067C1.6994 2.36198 1.76651 2.32516 1.83889 2.30232C1.91127 2.27948 1.98748 2.27108 2.06314 2.2776ZM2.06314 0.848908C1.79849 0.842579 1.53517 0.888071 1.28823 0.982783C1.0413 1.0775 0.815586 1.21957 0.623991 1.4009C0.432395 1.58222 0.278672 1.79924 0.171605 2.03955C0.0645387 2.27987 0.00622631 2.53876 0 2.80145L0 50.6625C0.00274338 52.6582 0.179328 54.6499 0.52778 56.6154C15.4016 51.7102 30.1315 42.7095 39.7754 36.0899C41.5507 34.8517 43.23 33.7088 44.6214 32.6611C45.388 32.134 46.0129 31.4285 46.4414 30.6064C46.8699 29.7843 47.0889 28.8705 47.0795 27.9449C47.07 27.0194 46.8323 26.1102 46.3871 25.2969C45.9418 24.4835 45.3027 23.7908 44.5255 23.2793C43.134 22.2792 41.5027 21.2315 39.7754 20.0886C30.5153 13.9452 16.697 5.75407 2.78284 0.991777L2.06314 0.848908Z" fill="url(#paint6_linear)"/>
<g style="mix-blend-mode:multiply" opacity="0.9">
<path style="mix-blend-mode:multiply" opacity="0.4" d="M0.527344 56.6162C0.671284 57.3781 0.815224 58.0448 1.00714 58.7592C4.94151 74.7605 20.4391 84.9994 38.9593 84.9994C57.4796 84.9994 73.0252 74.7605 76.9595 58.7592C77.2046 57.8851 77.381 56.9935 77.4873 56.0923C63.1413 51.0919 49.0831 42.4721 39.775 36.0907C30.131 42.7103 15.4012 51.711 0.527344 56.6162Z" fill="url(#paint7_radial)"/>
<path style="mix-blend-mode:multiply" opacity="0.4" d="M76.0957 1.42087C76.4366 1.45965 76.7645 1.57354 77.0553 1.75423C76.7645 1.57354 76.4366 1.45965 76.0957 1.42087Z" fill="url(#paint8_radial)"/>
</g>
<g style="mix-blend-mode:multiply" opacity="0.1">
<path style="mix-blend-mode:multiply" opacity="0.7" d="M39.775 37.8051C48.8432 43.9961 62.1337 52.092 75.856 57.0448C75.8062 57.4978 75.7097 57.9447 75.5681 58.3782C71.8736 73.4271 57.1438 83.5707 38.9593 83.5707C20.7749 83.5707 6.09303 73.4747 2.39856 58.4258C2.31682 58.1443 2.25273 57.858 2.20664 57.5686C16.4087 52.6635 30.275 44.2818 39.775 37.8051ZM39.775 36.0907C30.131 42.7103 15.4012 51.711 0.527344 56.6162C0.671284 57.3781 0.815224 58.0448 1.00714 58.7592C4.94151 74.7605 20.4391 84.9994 38.9593 84.9994C57.4796 84.9994 73.0252 74.7605 76.9595 58.7592C77.2046 57.8851 77.381 56.9935 77.4873 56.0923C63.1413 51.0919 49.0831 42.4721 39.775 36.0907Z" fill="url(#paint9_linear)"/>
<path style="mix-blend-mode:multiply" opacity="0.1" d="M76.0957 1.42087C76.4366 1.45965 76.7645 1.57354 77.0553 1.75423C76.7645 1.57354 76.4366 1.45965 76.0957 1.42087Z" fill="url(#paint10_linear)"/>
</g>
<defs>
<radialGradient id="paint0_radial" cx="0" cy="0" r="1" gradientUnits="userSpaceOnUse" gradientTransform="translate(52.696 37.4413) scale(84.013 55.0359)">
<stop stop-color="#EA4A46"/>
<stop offset="0.09" stop-color="#ED605C"/>
<stop offset="0.38" stop-color="#F4A3A1"/>
<stop offset="0.62" stop-color="#FAD5D4"/>
<stop offset="0.81" stop-color="#FEF4F3"/>
<stop offset="0.91" stop-color="white"/>
</radialGradient>
<radialGradient id="paint1_radial" cx="0" cy="0" r="1" gradientUnits="userSpaceOnUse" gradientTransform="translate(76.3068 1.57802) scale(0.34546 0.342885)">
<stop stop-color="white"/>
<stop offset="1"/>
</radialGradient>
<linearGradient id="paint2_linear" x1="37.1614" y1="57.6827" x2="113.703" y2="-15.7086" gradientUnits="userSpaceOnUse">
<stop offset="0.12" stop-color="#EA4A46"/>
<stop offset="0.22" stop-color="#EC5748"/>
<stop offset="0.41" stop-color="#F17B4D"/>
<stop offset="0.67" stop-color="#F8B455"/>
<stop offset="0.86" stop-color="#FFE45C"/>
</linearGradient>
<linearGradient id="paint3_linear" x1="47.074" y1="47.3251" x2="87.0995" y2="13.4898" gradientUnits="userSpaceOnUse">
<stop/>
<stop offset="0.09" stop-color="#292929"/>
<stop offset="0.28" stop-color="#919191"/>
<stop offset="0.47" stop-color="white"/>
</linearGradient>
<linearGradient id="paint4_linear" x1="47.074" y1="47.3251" x2="87.0995" y2="13.4898" gradientUnits="userSpaceOnUse">
<stop/>
<stop offset="0.09" stop-color="#292929"/>
<stop offset="0.28" stop-color="#919191"/>
<stop offset="0.47" stop-color="white"/>
</linearGradient>
<linearGradient id="paint5_linear" x1="32.5496" y1="8.77813" x2="-9.71703" y2="44.5062" gradientUnits="userSpaceOnUse">
<stop offset="0.13" stop-color="white"/>
<stop offset="0.22" stop-color="#FCFCFC"/>
<stop offset="0.29" stop-color="#F1F1F1"/>
<stop offset="0.36" stop-color="#E0E0E0"/>
<stop offset="0.43" stop-color="#C7C7C7"/>
<stop offset="0.5" stop-color="#A7A7A7"/>
<stop offset="0.56" stop-color="#818181"/>
<stop offset="0.62" stop-color="#525252"/>
<stop offset="0.68" stop-color="#1E1E1E"/>
<stop offset="0.71"/>
</linearGradient>
<linearGradient id="paint6_linear" x1="32.5496" y1="8.77813" x2="-9.71703" y2="44.5062" gradientUnits="userSpaceOnUse">
<stop offset="0.13" stop-color="white"/>
<stop offset="0.2" stop-color="#FAFAFA"/>
<stop offset="0.29" stop-color="#EBEBEB"/>
<stop offset="0.39" stop-color="#D1D1D1"/>
<stop offset="0.5" stop-color="#AEAEAE"/>
<stop offset="0.62" stop-color="#818181"/>
<stop offset="0.73" stop-color="#4A4A4A"/>
<stop offset="0.85" stop-color="#0A0A0A"/>
<stop offset="0.87"/>
</linearGradient>
<radialGradient id="paint7_radial" cx="0" cy="0" r="1" gradientUnits="userSpaceOnUse" gradientTransform="translate(52.696 37.4413) scale(84.013 55.0359)">
<stop stop-color="#EA4A46"/>
<stop offset="0.09" stop-color="#ED605C"/>
<stop offset="0.38" stop-color="#F4A3A1"/>
<stop offset="0.62" stop-color="#FAD5D4"/>
<stop offset="0.81" stop-color="#FEF4F3"/>
<stop offset="0.91" stop-color="white"/>
</radialGradient>
<radialGradient id="paint8_radial" cx="0" cy="0" r="1" gradientUnits="userSpaceOnUse" gradientTransform="translate(76.3068 1.57802) scale(0.34546 0.342885)">
<stop stop-color="white"/>
<stop offset="1"/>
</radialGradient>
<linearGradient id="paint9_linear" x1="12431.1" y1="6164.85" x2="87.4914" y2="6164.85" gradientUnits="userSpaceOnUse">
<stop offset="0.13" stop-color="white"/>
<stop offset="0.22" stop-color="#FCFCFC"/>
<stop offset="0.29" stop-color="#F1F1F1"/>
<stop offset="0.36" stop-color="#E0E0E0"/>
<stop offset="0.43" stop-color="#C7C7C7"/>
<stop offset="0.5" stop-color="#A7A7A7"/>
<stop offset="0.56" stop-color="#818181"/>
<stop offset="0.62" stop-color="#525252"/>
<stop offset="0.68" stop-color="#1E1E1E"/>
<stop offset="0.71"/>
</linearGradient>
<linearGradient id="paint10_linear" x1="230.171" y1="1.94091" x2="228.328" y2="1.94091" gradientUnits="userSpaceOnUse">
<stop offset="0.13" stop-color="white"/>
<stop offset="0.22" stop-color="#FCFCFC"/>
<stop offset="0.29" stop-color="#F1F1F1"/>
<stop offset="0.36" stop-color="#E0E0E0"/>
<stop offset="0.43" stop-color="#C7C7C7"/>
<stop offset="0.5" stop-color="#A7A7A7"/>
<stop offset="0.56" stop-color="#818181"/>
<stop offset="0.62" stop-color="#525252"/>
<stop offset="0.68" stop-color="#1E1E1E"/>
<stop offset="0.71"/>
</linearGradient>
</defs>
</svg>
