<svg width="96" height="33" viewBox="0 0 96 33" fill="none" xmlns="http://www.w3.org/2000/svg">
<path d="M0 4C0 1.79086 1.79086 0 4 0H92C94.2091 0 96 1.79086 96 4V29C96 31.2091 94.2091 33 92 33H4C1.79086 33 0 31.2091 0 29V4Z" fill="#FCFCFC"/>
<path d="M14 13.5C14.1326 13.5 14.2598 13.5527 14.3536 13.6464C14.4473 13.7402 14.5 13.8674 14.5 14V20C14.5 20.1326 14.4473 20.2598 14.3536 20.3536C14.2598 20.4473 14.1326 20.5 14 20.5C13.8674 20.5 13.7402 20.4473 13.6464 20.3536C13.5527 20.2598 13.5 20.1326 13.5 20V14C13.5 13.8674 13.5527 13.7402 13.6464 13.6464C13.7402 13.5527 13.8674 13.5 14 13.5ZM16.5 13.5C16.6326 13.5 16.7598 13.5527 16.8536 13.6464C16.9473 13.7402 17 13.8674 17 14V20C17 20.1326 16.9473 20.2598 16.8536 20.3536C16.7598 20.4473 16.6326 20.5 16.5 20.5C16.3674 20.5 16.2402 20.4473 16.1464 20.3536C16.0527 20.2598 16 20.1326 16 20V14C16 13.8674 16.0527 13.7402 16.1464 13.6464C16.2402 13.5527 16.3674 13.5 16.5 13.5ZM19.5 14C19.5 13.8674 19.4473 13.7402 19.3536 13.6464C19.2598 13.5527 19.1326 13.5 19 13.5C18.8674 13.5 18.7402 13.5527 18.6464 13.6464C18.5527 13.7402 18.5 13.8674 18.5 14V20C18.5 20.1326 18.5527 20.2598 18.6464 20.3536C18.7402 20.4473 18.8674 20.5 19 20.5C19.1326 20.5 19.2598 20.4473 19.3536 20.3536C19.4473 20.2598 19.5 20.1326 19.5 20V14Z" fill="#999999"/>
<path fill-rule="evenodd" clip-rule="evenodd" d="M23 11C23 11.2652 22.8946 11.5196 22.7071 11.7071C22.5196 11.8946 22.2652 12 22 12H21.5V21C21.5 21.5304 21.2893 22.0391 20.9142 22.4142C20.5391 22.7893 20.0304 23 19.5 23H13.5C12.9696 23 12.4609 22.7893 12.0858 22.4142C11.7107 22.0391 11.5 21.5304 11.5 21V12H11C10.7348 12 10.4804 11.8946 10.2929 11.7071C10.1054 11.5196 10 11.2652 10 11V10C10 9.73478 10.1054 9.48043 10.2929 9.29289C10.4804 9.10536 10.7348 9 11 9H14.5C14.5 8.73478 14.6054 8.48043 14.7929 8.29289C14.9804 8.10536 15.2348 8 15.5 8H17.5C17.7652 8 18.0196 8.10536 18.2071 8.29289C18.3946 8.48043 18.5 8.73478 18.5 9H22C22.2652 9 22.5196 9.10536 22.7071 9.29289C22.8946 9.48043 23 9.73478 23 10V11ZM12.618 12L12.5 12.059V21C12.5 21.2652 12.6054 21.5196 12.7929 21.7071C12.9804 21.8946 13.2348 22 13.5 22H19.5C19.7652 22 20.0196 21.8946 20.2071 21.7071C20.3946 21.5196 20.5 21.2652 20.5 21V12.059L20.382 12H12.618ZM11 11V10H22V11H11Z" fill="#999999"/>
<path d="M46.8035 8.4726C47.0658 8.17 47.4216 8 47.7925 8C48.1635 8 48.5192 8.17 48.7816 8.4726L50.5904 10.5597C50.8527 10.8624 51 11.2729 51 11.7009C51 12.1289 50.8527 12.5394 50.5904 12.8421L42.1968 22.5271C41.9345 22.8298 41.5787 22.9999 41.2078 23H39.3989C39.0279 23 38.6721 22.8299 38.4097 22.5272C38.1474 22.2245 38 21.8139 38 21.3858V19.2987C38.0001 18.8707 38.1475 18.4602 38.4099 18.1575L46.8035 8.4726ZM46.6832 10.8938L48.492 12.9809L49.6014 11.7009L47.7925 9.61381L46.6832 10.8938ZM47.503 14.1221L45.6941 12.035L39.3989 19.2987V21.3858H41.2078L47.503 14.1221Z" fill="#999999"/>
<path d="M68 8C66.89 8 66 8.78529 66 9.76471V20.3529C66 20.821 66.2107 21.2698 66.5858 21.6008C66.9609 21.9317 67.4696 22.1176 68 22.1176H76V20.45L86 11.6265V11.5294C86 11.0614 85.7893 10.6125 85.4142 10.2816C85.0391 9.95063 84.5304 9.76471 84 9.76471H76L74 8H68ZM86.04 14.2912C85.9 14.2912 85.76 14.3441 85.65 14.4412L84.65 15.3235L86.7 17.1324L87.7 16.25C87.92 16.0647 87.92 15.7559 87.7 15.5706L86.42 14.4412C86.3713 14.395 86.3126 14.3579 86.2473 14.3321C86.182 14.3063 86.1115 14.2924 86.04 14.2912ZM84.07 15.8353L78 21.1824V23H80.06L86.12 17.6441L84.07 15.8353Z" fill="#999999"/>
<path d="M4 1H92V-1H4V1ZM95 4V29H97V4H95ZM92 32H4V34H92V32ZM1 29V4H-1V29H1ZM4 32C2.34315 32 1 30.6569 1 29H-1C-1 31.7614 1.23858 34 4 34V32ZM95 29C95 30.6569 93.6569 32 92 32V34C94.7614 34 97 31.7614 97 29H95ZM92 1C93.6569 1 95 2.34315 95 4H97C97 1.23858 94.7614 -1 92 -1V1ZM4 -1C1.23858 -1 -1 1.23858 -1 4H1C1 2.34315 2.34315 1 4 1V-1Z" fill="#C7C7C7"/>
</svg>
