<svg width="161" height="187" viewBox="0 0 161 187" fill="none" xmlns="http://www.w3.org/2000/svg">
<path d="M60.5254 0.3125C49.5759 0.3125 40.5566 9.33172 40.5566 20.2813V98.9115L36.1901 94.332L34.5261 92.8743C30.8237 89.1885 25.8121 87.1192 20.5879 87.1192C15.3636 87.1192 10.352 89.1885 6.64969 92.8743C2.96384 96.5767 0.894531 101.588 0.894531 106.813C0.894531 112.037 2.96384 117.048 6.64969 120.751V120.957L61.1511 174.833L61.5638 175.039L61.7701 175.458C71.3485 182.719 83.032 186.661 95.0514 186.688H106.5C113.661 186.702 120.755 185.303 127.374 182.569C133.992 179.835 140.006 175.821 145.069 170.757C150.133 165.693 154.146 159.679 156.879 153.06C159.612 146.441 161.011 139.347 160.995 132.186V80.1875C160.995 69.238 151.969 60.2188 141.026 60.2188C138.191 60.2188 135.568 60.9975 133.118 62.0892C130.935 53.436 123.061 46.9063 113.775 46.9063C108.677 46.9063 103.997 48.9031 100.463 52.1048C96.8241 48.7802 92.0792 46.9273 87.1504 46.9063C84.8759 46.9347 82.6237 47.3581 80.4941 48.1576V20.2813C80.4941 9.33172 71.4749 0.3125 60.5254 0.3125ZM60.5254 13.625C64.2196 13.625 67.1816 16.587 67.1816 20.2813V93.5H80.4941V66.875C80.4941 63.1808 83.4562 60.2188 87.1504 60.2188C90.8446 60.2188 93.8066 63.1808 93.8066 66.875V93.5H107.119V66.875C107.119 63.1808 110.081 60.2188 113.775 60.2188C117.47 60.2188 120.432 63.1808 120.432 66.875V93.5H134.37V80.1875C134.37 76.4933 137.332 73.5313 141.026 73.5313C144.714 73.5313 147.682 76.4933 147.682 80.1875V132.193C147.682 155.25 129.557 173.375 106.493 173.375H95.058C85.3066 173.375 76.8798 169.894 69.8841 164.635L16.0084 111.385C13.0463 108.423 13.0463 105.195 16.0084 102.233C18.9771 99.271 22.1987 99.271 25.1607 102.233L53.8691 130.941V20.2813C53.8691 16.587 56.8312 13.625 60.5254 13.625Z" fill="black"/>
</svg>
