<svg width="20" height="12" viewBox="0 0 20 12" fill="none" xmlns="http://www.w3.org/2000/svg">
<path d="M10 0.399994C3.439 0.399994 0 5.23199 0 5.99999C0 6.76599 3.439 11.6 10 11.6C16.56 11.6 20 6.76599 20 5.99999C20 5.23199 16.56 0.399994 10 0.399994ZM10 10.307C7.545 10.307 5.555 8.37899 5.555 5.99999C5.555 3.62099 7.545 1.69099 10 1.69099C12.455 1.69099 14.444 3.62099 14.444 5.99999C14.444 8.37899 12.455 10.307 10 10.307ZM10 5.99999C9.593 5.55299 10.663 3.84599 10 3.84599C8.772 3.84599 7.777 4.81099 7.777 5.99999C7.777 7.18899 8.772 8.15399 10 8.15399C11.227 8.15399 12.223 7.18899 12.223 5.99999C12.223 5.45299 10.346 6.37899 10 5.99999Z" fill="#78D6DA"/>
</svg>
