<svg width="35" height="35" viewBox="0 0 35 35" fill="none" xmlns="http://www.w3.org/2000/svg">
<g clip-path="url(#clip0)">
<path d="M21.5815 3.72234C16.6613 -1.2221 8.66613 -1.2221 3.746 3.61123C-1.17413 8.50012 -1.23004 16.4446 3.69009 21.3335C6.15016 23.7779 9.39297 25.0557 12.6358 25.0557C14.2572 25.0557 15.8227 24.7779 17.3323 24.1668C18.8419 23.5557 20.2396 22.6668 21.4696 21.4446C26.4457 16.5557 26.4457 8.61123 21.5815 3.72234ZM20.016 19.9446C15.8786 24.0001 9.22524 23.9446 5.14377 19.889C1.0623 15.7779 1.0623 9.16679 5.19968 5.11123C7.26837 3.11123 9.95207 2.11123 12.6358 2.11123C15.3754 2.11123 18.0591 3.16678 20.1278 5.22234C22.1406 7.2779 23.147 9.94456 23.147 12.6112C23.147 15.2223 22.0847 17.9446 20.016 19.9446Z" fill="#666666"/>
<path d="M33.9937 34.0001C32.6519 35.3334 30.5273 35.3334 29.1854 34.0001L21.6934 26.5001C21.4138 26.2223 21.4138 25.7778 21.6934 25.5556L22.2525 25.0001L20.7429 23.5001C21.2461 23.1112 21.7493 22.6667 22.1966 22.2223C22.6439 21.7778 23.0912 21.2778 23.4825 20.7778L24.9921 22.2778L25.5512 21.7223C25.8308 21.4445 26.2781 21.4445 26.5576 21.7223L34.0496 29.2223C35.3356 30.5556 35.3356 32.7223 33.9937 34.0001Z" fill="#666666"/>
<path d="M16.6054 8.05566C16.6054 10.2223 14.8163 12.0557 12.6358 12.0557C10.4553 12.0557 8.61023 10.2779 8.61023 8.05566C8.61023 5.83344 10.3994 4.05566 12.6358 4.05566C14.8163 4.05566 16.6054 5.83344 16.6054 8.05566Z" fill="#666666"/>
<path d="M20.631 17.4446C20.2397 18.0557 19.7924 18.6668 19.2333 19.2224C18.6183 19.8335 17.9473 20.3335 17.2205 20.7224V17.4446C17.2205 17.1113 16.9969 16.8891 16.6614 16.8891C16.3818 16.8891 16.1023 17.1113 16.1023 17.4446V21.278C14.9841 21.7224 13.81 21.9446 12.5799 21.9446C11.3499 21.9446 10.1758 21.7224 9.05756 21.278V17.4446C9.05756 17.1113 8.77801 16.8891 8.49846 16.8891C8.16299 16.8891 7.93935 17.1113 7.93935 17.4446V20.7224C7.21251 20.278 6.48568 19.778 5.87066 19.1668C5.36747 18.6668 4.92018 18.0557 4.52881 17.5002C4.64063 15.278 6.54159 13.4446 8.83392 13.4446H16.3259C18.6183 13.3891 20.5192 15.1668 20.631 17.4446Z" fill="#666666"/>
</g>
<defs>
<clipPath id="clip0">
<rect width="35" height="35" fill="white"/>
</clipPath>
</defs>
</svg>
