<svg width="20" height="20" viewBox="0 0 20 20" fill="none" xmlns="http://www.w3.org/2000/svg">
<path d="M11.5226 20H7.88256C7.41267 20 7.00611 19.673 6.90556 19.214L6.49856 17.33C5.95561 17.0921 5.44078 16.7946 4.96356 16.443L3.12656 17.028C2.67856 17.1709 2.19154 16.9823 1.95656 16.575L0.132555 13.424C-0.099857 13.0165 -0.0197863 12.5025 0.325555 12.185L1.75056 10.885C1.68575 10.2961 1.68575 9.70189 1.75056 9.113L0.325555 7.816C-0.020295 7.49837 -0.100397 6.98372 0.132555 6.576L1.95256 3.423C2.18754 3.0157 2.67456 2.82714 3.12256 2.97L4.95956 3.555C5.20362 3.37416 5.45769 3.20722 5.72056 3.055C5.9729 2.91269 6.23259 2.78385 6.49856 2.669L6.90656 0.787C7.00663 0.327969 7.41274 0.000494393 7.88256 0H11.5226C11.9924 0.000494393 12.3985 0.327969 12.4986 0.787L12.9106 2.67C13.1913 2.79352 13.4648 2.93308 13.7296 3.088C13.9765 3.23081 14.2152 3.38739 14.4446 3.557L16.2826 2.972C16.7303 2.82967 17.2167 3.01816 17.4516 3.425L19.2716 6.578C19.504 6.98548 19.4239 7.49951 19.0786 7.817L17.6536 9.117C17.7184 9.70589 17.7184 10.3001 17.6536 10.889L19.0786 12.189C19.4239 12.5065 19.504 13.0205 19.2716 13.428L17.4516 16.581C17.2167 16.9878 16.7303 17.1763 16.2826 17.034L14.4446 16.449C14.212 16.6203 13.9703 16.7789 13.7206 16.924C13.4584 17.0759 13.188 17.2131 12.9106 17.335L12.4986 19.214C12.3981 19.6726 11.9921 19.9996 11.5226 20ZM5.32256 14.229L6.14256 14.829C6.32741 14.9652 6.52007 15.0904 6.71956 15.204C6.90726 15.3127 7.10052 15.4115 7.29856 15.5L8.23155 15.909L8.68855 18H10.7186L11.1756 15.908L12.1086 15.499C12.5159 15.3194 12.9025 15.0961 13.2616 14.833L14.0826 14.233L16.1236 14.883L17.1386 13.125L15.5556 11.682L15.6676 10.67C15.7168 10.2274 15.7168 9.78064 15.6676 9.338L15.5556 8.326L17.1396 6.88L16.1236 5.121L14.0826 5.771L13.2616 5.171C12.9023 4.90671 12.5158 4.68175 12.1086 4.5L11.1756 4.091L10.7186 2H8.68855L8.22956 4.092L7.29856 4.5C7.10036 4.58704 6.90707 4.68486 6.71956 4.793C6.52129 4.90633 6.32965 5.03086 6.14556 5.166L5.32456 5.766L3.28456 5.116L2.26756 6.88L3.85056 8.321L3.73856 9.334C3.68936 9.77664 3.68936 10.2234 3.73856 10.666L3.85056 11.678L2.26756 13.121L3.28256 14.879L5.32256 14.229ZM9.69855 14C7.48942 14 5.69855 12.2091 5.69855 10C5.69855 7.79086 7.48942 6 9.69855 6C11.9077 6 13.6986 7.79086 13.6986 10C13.6958 12.208 11.9066 13.9972 9.69855 14ZM9.69855 8C8.60595 8.00111 7.71644 8.87885 7.70079 9.97134C7.68513 11.0638 8.54912 11.9667 9.64124 11.9991C10.7334 12.0315 11.6494 11.1815 11.6986 10.09V10.49V10C11.6986 8.89543 10.8031 8 9.69855 8Z" fill="#2E3A59"/>
</svg>
