<svg width="150" height="150" viewBox="0 0 150 150" fill="none" xmlns="http://www.w3.org/2000/svg">
<g opacity="0.8" filter="url(#filter0_d)">
<circle cx="75" cy="71" r="70" fill="white"/>
<circle cx="75" cy="71" r="69.5" stroke="#DDDDDD"/>
</g>
<path d="M31.5977 91.2463C31.7606 92.0748 31.9236 92.7997 32.1409 93.5764C36.5951 110.975 54.1407 122.107 75.1084 122.107C96.0761 122.107 113.676 110.975 118.13 93.5764C118.408 92.626 118.607 91.6565 118.728 90.6767C102.486 85.2398 86.57 75.8675 76.0319 68.929C65.1134 76.1264 48.437 85.9129 31.5977 91.2463Z" fill="#FFE45C"/>
<path d="M117.152 31.2321C117.538 31.2743 117.909 31.3981 118.239 31.5945C117.909 31.3981 117.538 31.2743 117.152 31.2321Z" fill="#FFE45C"/>
<g style="mix-blend-mode:multiply" opacity="0.3">
<path style="mix-blend-mode:multiply" opacity="0.3" d="M31.5977 91.2459C31.7606 92.0744 31.9236 92.7993 32.1409 93.5761C36.5951 110.974 54.1407 122.107 75.1084 122.107C96.0761 122.107 113.676 110.974 118.13 93.5761C118.408 92.6256 118.607 91.6562 118.728 90.6763C102.486 85.2394 86.57 75.8672 76.0319 68.9286C65.1134 76.1261 48.437 85.9126 31.5977 91.2459Z" fill="url(#paint0_radial)"/>
<path style="mix-blend-mode:multiply" opacity="0.3" d="M117.152 31.2321C117.538 31.2743 117.909 31.3981 118.239 31.5946C117.909 31.3981 117.538 31.2743 117.152 31.2321Z" fill="url(#paint1_radial)"/>
</g>
<g style="mix-blend-mode:multiply">
<path d="M80.8663 71.9835L74.2935 122.107L67.2861 60.4883H67.775C67.8423 61.4273 68.1253 62.3408 68.604 63.164C69.0828 63.9873 69.7455 64.7001 70.5454 65.252C72.1207 66.3912 74.0219 67.6339 76.0317 68.9802C78.0416 70.3265 79.128 70.9479 80.8663 71.9835Z" fill="#FFE45C"/>
</g>
<path d="M81.5181 65.201C79.9428 66.3402 78.0416 67.5829 76.0317 68.9292C65.1133 76.1267 48.4369 85.9132 31.5975 91.2466C31.203 89.1095 31.0031 86.9439 31 84.774L31 32.7347C31.0194 32.3856 31.1248 32.0457 31.3077 31.7426C31.4905 31.4396 31.7456 31.1818 32.0524 30.9902C32.3592 30.7986 32.709 30.6785 33.0736 30.6398C33.4381 30.601 33.807 30.6446 34.1506 30.7671C49.9035 35.9451 65.5479 44.8513 76.0317 51.531C77.9873 52.7737 79.8342 53.9129 81.4095 55.0003C82.2894 55.5565 83.013 56.3096 83.5171 57.194C84.0211 58.0783 84.2903 59.0668 84.301 60.0732C84.3117 61.0796 84.0637 62.0731 83.5786 62.967C83.0934 63.8609 82.386 64.6279 81.5181 65.201Z" fill="#7ADADE"/>
<path d="M119.271 33.3031V84.8246C119.281 86.7869 119.099 88.7458 118.728 90.6758C104.822 86.0156 91.1329 78.4557 80.8663 71.9831C79.1281 70.9475 77.5528 69.9119 76.0318 68.9281C74.5108 67.9442 72.1207 66.339 70.5454 65.1999C69.7456 64.6479 69.0828 63.9351 68.6041 63.1119C68.1253 62.2886 67.8423 61.3751 67.7751 60.4361C67.725 59.3705 67.9636 58.3105 68.4679 57.3583C68.9721 56.4061 69.725 55.5936 70.6541 54.9991C72.2294 53.9117 74.0763 52.7726 76.0318 51.4781C86.0811 45.1091 100.911 36.6689 116.012 31.3873C117.587 30.8177 119.271 31.8533 119.271 33.3031Z" fill="url(#paint2_linear)"/>
<g style="mix-blend-mode:multiply" opacity="0.3">
<path style="mix-blend-mode:multiply" opacity="0.3" d="M116.881 31.7502C117.109 31.7362 117.338 31.7653 117.555 31.8358C117.771 31.9064 117.971 32.017 118.143 32.1613C118.314 32.3056 118.454 32.4809 118.555 32.6769C118.655 32.8729 118.714 33.0859 118.728 33.3037V84.8252C118.72 86.5592 118.575 88.2901 118.293 90.0032C104.061 85.0841 90.2638 77.317 81.1379 71.5694L76.3577 68.5143L70.8713 64.7861C70.0706 64.2615 69.4176 63.5571 68.9699 62.7351C68.5223 61.913 68.2938 60.9986 68.3045 60.0724C68.3152 59.1463 68.5649 58.2369 69.0315 57.4244C69.4981 56.612 70.1673 55.9215 70.98 55.4139L76.3577 51.9446C86.1897 45.731 101.074 37.1872 116.175 31.8538L116.881 31.7502ZM116.881 31.2324C116.584 31.2334 116.289 31.2861 116.012 31.3878C100.911 36.6694 86.0811 45.1096 76.0318 51.4786C74.0763 52.7731 72.2294 53.9123 70.6541 54.9996C69.725 55.5941 68.9721 56.4066 68.4679 57.3588C67.9636 58.3111 67.725 59.371 67.7751 60.4366C67.8423 61.3757 68.1253 62.2892 68.6041 63.1124C69.0828 63.9356 69.7456 64.6484 70.5454 65.2004C72.1207 66.3396 74.0219 67.5823 76.0318 68.9286C78.0416 70.2749 79.1281 70.948 80.8663 71.9836C91.1329 78.4562 104.822 86.0161 118.728 90.6763C119.099 88.7463 119.281 86.7874 119.271 84.8252V33.3037C119.257 33.018 119.184 32.7377 119.056 32.4789C118.929 32.2201 118.749 31.9878 118.527 31.7954C118.305 31.603 118.045 31.4543 117.763 31.3577C117.48 31.2611 117.18 31.2185 116.881 31.2324Z" fill="url(#paint3_linear)"/>
</g>
<path style="mix-blend-mode:overlay" opacity="0.3" d="M116.881 32.7859C117.261 32.7859 117.641 32.993 117.641 33.3037V84.8252C117.652 86.071 117.579 87.3163 117.424 88.5534C103.735 83.686 90.5354 76.2296 81.7354 70.6891L76.9552 67.6341L71.5232 63.9577C70.9004 63.5505 70.385 63.0114 70.0174 62.3825C69.6499 61.7536 69.4401 61.0521 69.4047 60.333C69.3608 59.5297 69.5383 58.7295 69.9195 58.0118C70.3007 57.2942 70.8723 56.6842 71.5775 56.2424L76.9552 52.7731C86.7329 46.6112 101.508 38.1192 116.555 32.8376H116.881V32.7859ZM116.881 31.2842C116.584 31.2852 116.289 31.3378 116.012 31.4396C100.911 36.6694 86.0811 45.1096 76.0318 51.4786C74.0763 52.7731 72.2294 53.9123 70.6541 54.9996C69.725 55.5941 68.9721 56.4066 68.4679 57.3588C67.9636 58.3111 67.725 59.371 67.7751 60.4366C67.8423 61.3757 68.1253 62.2892 68.6041 63.1124C69.0828 63.9356 69.7456 64.6484 70.5454 65.2004C72.1207 66.3396 74.0219 67.5823 76.0318 68.9286C78.0416 70.2749 79.1281 70.948 80.8663 71.9836C91.1329 78.4562 104.822 86.0161 118.728 90.6763C119.099 88.7463 119.281 86.7874 119.271 84.8252V33.3037C119.257 33.018 119.184 32.7377 119.056 32.4789C118.929 32.2201 118.749 31.9878 118.527 31.7954C118.305 31.603 118.045 31.4543 117.763 31.3577C117.48 31.2611 117.18 31.2185 116.881 31.2324V31.2842Z" fill="url(#paint4_linear)"/>
<path d="M81.5179 65.2006C79.9426 66.3397 78.0414 67.5825 76.0315 68.9288C73.9674 67.5825 72.1205 66.3397 70.5452 65.2006C69.7342 64.6592 69.0632 63.9489 68.5832 63.1234C68.1032 62.298 67.8267 61.3792 67.7748 60.4368C67.73 59.3719 67.9709 58.3138 68.4747 57.3624C68.9784 56.411 69.7285 55.5979 70.6538 54.9998C72.2291 53.9124 74.0217 52.7733 76.0315 51.4788L81.4093 54.9998C82.2892 55.556 83.0128 56.3092 83.5169 57.1935C84.0209 58.0778 84.2901 59.0664 84.3008 60.0727C84.3115 61.0791 84.0635 62.0727 83.5784 62.9666C83.0933 63.8605 82.3858 64.6275 81.5179 65.2006Z" fill="#EA4A46"/>
<path d="M81.5179 65.2006C79.9426 66.3397 78.0414 67.5825 76.0315 68.9288C73.9674 67.5825 72.1205 66.3397 70.5452 65.2006C69.7342 64.6592 69.0632 63.9489 68.5832 63.1234C68.1032 62.298 67.8267 61.3792 67.7748 60.4368C67.73 59.3719 67.9709 58.3138 68.4747 57.3624C68.9784 56.411 69.7285 55.5979 70.6538 54.9998C72.2291 53.9124 74.0217 52.7733 76.0315 51.4788L81.4093 54.9998C82.2892 55.556 83.0128 56.3092 83.5169 57.1935C84.0209 58.0778 84.2901 59.0664 84.3008 60.0727C84.3115 61.0791 84.0635 62.0727 83.5784 62.9666C83.0933 63.8605 82.3858 64.6275 81.5179 65.2006Z" fill="#86403D"/>
<g style="mix-blend-mode:overlay" opacity="0.24">
<path style="mix-blend-mode:overlay" opacity="0.24" d="M33.3358 31.3867L33.879 31.4903C49.5776 36.6683 65.2219 45.5745 75.5972 52.1507L80.9206 55.6199C81.6997 56.1033 82.3417 56.7624 82.7896 57.5389C83.2374 58.3154 83.4774 59.1852 83.4881 60.0712C83.4989 60.9573 83.2801 61.8322 82.8512 62.6183C82.4222 63.4045 81.7964 64.0776 81.0292 64.5779C79.2366 65.8725 77.3897 67.1152 75.5428 68.2544C64.8417 75.3483 48.7085 84.8241 32.2494 90.261C31.9655 88.4439 31.8203 86.6095 31.8148 84.7723V32.733C31.8423 32.3667 32.0146 32.024 32.2969 31.7741C32.5793 31.5242 32.9505 31.3858 33.3358 31.3867ZM33.3358 30.61C33.0362 30.6031 32.738 30.6526 32.4585 30.7556C32.1789 30.8585 31.9234 31.013 31.7065 31.2102C31.4895 31.4073 31.3155 31.6433 31.1943 31.9046C31.0731 32.1659 31.007 32.4474 31 32.733V84.7723C31.0031 86.9422 31.203 89.1078 31.5975 91.2449C48.4369 85.9115 65.1133 76.125 76.0317 68.9275C78.0416 67.5812 79.9428 66.3385 81.5181 65.1993C82.386 64.6262 83.0934 63.8592 83.5786 62.9653C84.0637 62.0714 84.3117 61.0779 84.301 60.0715C84.2903 59.0651 84.0211 58.0766 83.5171 57.1922C83.013 56.3079 82.2894 55.5548 81.4095 54.9986C79.8342 53.9112 77.9873 52.772 76.0317 51.5293C65.5479 44.8496 49.9035 35.9434 34.1506 30.7653L33.3358 30.61Z" fill="url(#paint5_linear)"/>
</g>
<path style="mix-blend-mode:multiply" opacity="0.2" d="M33.3358 32.1634H33.6074C49.1974 37.3415 64.7874 46.2477 75.1083 52.772L80.486 56.2413C81.15 56.6641 81.6953 57.2355 82.0741 57.9056C82.453 58.5757 82.6538 59.324 82.6592 60.0852C82.6646 60.8464 82.4742 61.5972 82.1049 62.2721C81.7355 62.947 81.1983 63.5253 80.5403 63.9566L75.1083 67.633C64.6244 74.5716 48.9258 83.7885 32.9012 89.1736C32.7264 87.7124 32.6357 86.243 32.6296 84.7723V32.733C32.6365 32.6513 32.6602 32.5717 32.6994 32.4988C32.7387 32.4259 32.7927 32.3611 32.8583 32.3081C32.924 32.2552 33 32.2151 33.0819 32.1903C33.1638 32.1655 33.2501 32.1563 33.3358 32.1634ZM33.3358 30.61C33.0362 30.6031 32.738 30.6526 32.4585 30.7556C32.1789 30.8585 31.9234 31.013 31.7065 31.2102C31.4895 31.4073 31.3155 31.6433 31.1943 31.9046C31.0731 32.1659 31.007 32.4474 31 32.733V84.7723C31.0031 86.9422 31.203 89.1078 31.5975 91.2449C48.4369 85.9115 65.1133 76.125 76.0317 68.9275C78.0416 67.5812 79.9428 66.3385 81.5181 65.1993C82.386 64.6262 83.0934 63.8592 83.5786 62.9653C84.0637 62.0714 84.3117 61.0779 84.301 60.0715C84.2903 59.0651 84.0211 58.0766 83.5171 57.1922C83.013 56.3079 82.2894 55.5548 81.4095 54.9986C79.8342 53.9112 77.9873 52.772 76.0317 51.5293C65.5479 44.8496 49.9035 35.9434 34.1506 30.7653L33.3358 30.61Z" fill="url(#paint6_linear)"/>
<g style="mix-blend-mode:multiply" opacity="0.9">
<path style="mix-blend-mode:multiply" opacity="0.4" d="M31.5977 91.2459C31.7606 92.0744 31.9236 92.7993 32.1409 93.5761C36.5951 110.974 54.1407 122.107 75.1084 122.107C96.0761 122.107 113.676 110.974 118.13 93.5761C118.408 92.6256 118.607 91.6562 118.728 90.6763C102.486 85.2394 86.57 75.8672 76.0319 68.9286C65.1134 76.1261 48.437 85.9126 31.5977 91.2459Z" fill="url(#paint7_radial)"/>
<path style="mix-blend-mode:multiply" opacity="0.4" d="M117.152 31.2321C117.538 31.2743 117.909 31.3981 118.239 31.5946C117.909 31.3981 117.538 31.2743 117.152 31.2321Z" fill="url(#paint8_radial)"/>
</g>
<defs>
<filter id="filter0_d" x="0" y="0" width="150" height="150" filterUnits="userSpaceOnUse" color-interpolation-filters="sRGB">
<feFlood flood-opacity="0" result="BackgroundImageFix"/>
<feColorMatrix in="SourceAlpha" type="matrix" values="0 0 0 0 0 0 0 0 0 0 0 0 0 0 0 0 0 0 127 0"/>
<feMorphology radius="1" operator="dilate" in="SourceAlpha" result="effect1_dropShadow"/>
<feOffset dy="4"/>
<feGaussianBlur stdDeviation="2"/>
<feColorMatrix type="matrix" values="0 0 0 0 0 0 0 0 0 0 0 0 0 0 0 0 0 0 0.15 0"/>
<feBlend mode="normal" in2="BackgroundImageFix" result="effect1_dropShadow"/>
<feBlend mode="normal" in="SourceGraphic" in2="effect1_dropShadow" result="shape"/>
</filter>
<radialGradient id="paint0_radial" cx="0" cy="0" r="1" gradientUnits="userSpaceOnUse" gradientTransform="translate(90.6604 70.3972) scale(95.1152 59.8405)">
<stop stop-color="#EA4A46"/>
<stop offset="0.09" stop-color="#ED605C"/>
<stop offset="0.38" stop-color="#F4A3A1"/>
<stop offset="0.62" stop-color="#FAD5D4"/>
<stop offset="0.81" stop-color="#FEF4F3"/>
<stop offset="0.91" stop-color="white"/>
</radialGradient>
<radialGradient id="paint1_radial" cx="0" cy="0" r="1" gradientUnits="userSpaceOnUse" gradientTransform="translate(117.391 31.403) scale(0.391113 0.372829)">
<stop stop-color="white"/>
<stop offset="1"/>
</radialGradient>
<linearGradient id="paint2_linear" x1="73.0713" y1="92.4053" x2="156.369" y2="9.24216" gradientUnits="userSpaceOnUse">
<stop offset="0.12" stop-color="#EA4A46"/>
<stop offset="0.22" stop-color="#EC5748"/>
<stop offset="0.41" stop-color="#F17B4D"/>
<stop offset="0.67" stop-color="#F8B455"/>
<stop offset="0.86" stop-color="#FFE45C"/>
</linearGradient>
<linearGradient id="paint3_linear" x1="84.2939" y1="81.1436" x2="128.073" y2="42.6092" gradientUnits="userSpaceOnUse">
<stop/>
<stop offset="0.09" stop-color="#292929"/>
<stop offset="0.28" stop-color="#919191"/>
<stop offset="0.47" stop-color="white"/>
</linearGradient>
<linearGradient id="paint4_linear" x1="84.2939" y1="81.1436" x2="128.073" y2="42.6092" gradientUnits="userSpaceOnUse">
<stop/>
<stop offset="0.09" stop-color="#292929"/>
<stop offset="0.28" stop-color="#919191"/>
<stop offset="0.47" stop-color="white"/>
</linearGradient>
<linearGradient id="paint5_linear" x1="67.8511" y1="39.2314" x2="21.6211" y2="79.9217" gradientUnits="userSpaceOnUse">
<stop offset="0.13" stop-color="white"/>
<stop offset="0.22" stop-color="#FCFCFC"/>
<stop offset="0.29" stop-color="#F1F1F1"/>
<stop offset="0.36" stop-color="#E0E0E0"/>
<stop offset="0.43" stop-color="#C7C7C7"/>
<stop offset="0.5" stop-color="#A7A7A7"/>
<stop offset="0.56" stop-color="#818181"/>
<stop offset="0.62" stop-color="#525252"/>
<stop offset="0.68" stop-color="#1E1E1E"/>
<stop offset="0.71"/>
</linearGradient>
<linearGradient id="paint6_linear" x1="67.8511" y1="39.2314" x2="21.6211" y2="79.9217" gradientUnits="userSpaceOnUse">
<stop offset="0.13" stop-color="white"/>
<stop offset="0.2" stop-color="#FAFAFA"/>
<stop offset="0.29" stop-color="#EBEBEB"/>
<stop offset="0.39" stop-color="#D1D1D1"/>
<stop offset="0.5" stop-color="#AEAEAE"/>
<stop offset="0.62" stop-color="#818181"/>
<stop offset="0.73" stop-color="#4A4A4A"/>
<stop offset="0.85" stop-color="#0A0A0A"/>
<stop offset="0.87"/>
</linearGradient>
<radialGradient id="paint7_radial" cx="0" cy="0" r="1" gradientUnits="userSpaceOnUse" gradientTransform="translate(90.6604 70.3972) scale(95.1152 59.8405)">
<stop stop-color="#EA4A46"/>
<stop offset="0.09" stop-color="#ED605C"/>
<stop offset="0.38" stop-color="#F4A3A1"/>
<stop offset="0.62" stop-color="#FAD5D4"/>
<stop offset="0.81" stop-color="#FEF4F3"/>
<stop offset="0.91" stop-color="white"/>
</radialGradient>
<radialGradient id="paint8_radial" cx="0" cy="0" r="1" gradientUnits="userSpaceOnUse" gradientTransform="translate(117.391 31.403) scale(0.391113 0.372829)">
<stop stop-color="white"/>
<stop offset="1"/>
</radialGradient>
</defs>
</svg>
