<svg width="35" height="35" viewBox="0 0 35 35" fill="none" xmlns="http://www.w3.org/2000/svg">
<path d="M0.368675 2.41371C0.450603 2.45532 0.53253 2.45532 0.614458 2.45532C0.778313 2.45532 0.942169 2.37209 1.06506 2.28886L2.25301 1.08201C2.41687 0.873929 2.45783 0.624235 2.3759 0.374541C2.25301 0.166463 2.04819 0 1.80241 0H0.614458C0.286747 0 0 0.29131 0 0.624235V1.83109C0 2.08078 0.163855 2.28886 0.368675 2.41371Z" fill="#666666"/>
<path d="M0.614458 15.7723H1.80241C2.04819 15.7723 2.29398 15.6058 2.3759 15.3977C2.45783 15.1481 2.41687 14.8984 2.25301 14.7319L1.06506 13.525C0.901205 13.3586 0.614458 13.2754 0.409639 13.4002C0.163855 13.4834 0 13.7331 0 13.9828V15.1897C0 15.5226 0.286747 15.7723 0.614458 15.7723Z" fill="#666666"/>
<path d="M15.5253 13.9829C15.5253 13.7332 15.3615 13.5251 15.1567 13.4003C14.9109 13.317 14.6651 13.3586 14.5012 13.5251L13.3133 14.732C13.1494 14.8984 13.0675 15.1897 13.1904 15.3978C13.2723 15.6475 13.5181 15.7724 13.7639 15.7724H14.9518C15.2796 15.7724 15.5663 15.481 15.5663 15.1481L15.5253 13.9829Z" fill="#666666"/>
<path d="M14.5012 2.24725C14.6241 2.37209 14.788 2.41371 14.9518 2.41371C15.0338 2.41371 15.1157 2.41371 15.1976 2.37209C15.4434 2.28886 15.5663 2.03917 15.5663 1.78947V0.624235C15.5663 0.29131 15.2795 0 14.9518 0H13.7639C13.5181 0 13.2723 0.166463 13.1904 0.374541C13.1085 0.624235 13.1494 0.873929 13.3133 1.04039L14.5012 2.24725Z" fill="#666666"/>
<path d="M0.491566 4.11995C0.327711 4.28641 0.204819 4.41126 0.122892 4.57772C0.0409639 4.70257 0 4.82742 0 4.95226V10.4871C0 10.6952 0 10.9033 0.0409639 11.0698C0.0819277 11.1946 0.122892 11.3195 0.204819 11.4027L4.05542 15.3146C4.21928 15.481 4.34217 15.6059 4.50602 15.6891C4.58795 15.7723 4.71084 15.814 4.83374 15.814H10.2819C10.5687 15.814 10.7325 15.7723 10.8554 15.7723C10.9783 15.7307 11.1012 15.6891 11.1831 15.6059L15.3205 11.4027C15.4434 11.2778 15.4843 11.1114 15.4843 10.9449V5.32681C15.4843 5.07711 15.4843 4.91065 15.4434 4.74419C15.4024 4.61934 15.3614 4.49449 15.2795 4.41126L11.4699 0.499388C11.306 0.332925 11.1831 0.208078 11.0193 0.124847C10.9374 0.0416157 10.8145 0 10.6916 0H5.24337C5.03855 0 4.83374 0 4.66988 0.0416157C4.54699 0.0832313 4.4241 0.124847 4.34217 0.208078L2.08916 2.49694C1.55663 3.03794 1.0241 3.57895 0.491566 4.11995Z" fill="#666666"/>
<path d="M0.368675 20.5999C0.450602 20.6415 0.53253 20.6415 0.614458 20.6415C0.778313 20.6415 0.942169 20.5583 1.06506 20.475L2.25301 19.2682C2.41687 19.1017 2.4988 18.8104 2.3759 18.6023C2.29398 18.3526 2.04819 18.2278 1.80241 18.2278H0.614458C0.286747 18.2278 0 18.5191 0 18.852V20.0589C0 20.3086 0.163855 20.5166 0.368675 20.5999Z" fill="#666666"/>
<path d="M1.06506 31.7528C0.901205 31.5864 0.655422 31.5031 0.409639 31.628C0.163855 31.7112 0 31.9609 0 32.2106V33.4175C0 33.7504 0.286747 34.0417 0.614458 34.0417H1.80241C2.04819 34.0417 2.29398 33.8752 2.3759 33.6672C2.45783 33.4175 2.41687 33.1678 2.25301 33.0013L1.06506 31.7528Z" fill="#666666"/>
<path d="M15.1567 31.628C14.9109 31.5448 14.6651 31.5864 14.5012 31.7529L13.3133 32.9597C13.1494 33.1262 13.0675 33.4175 13.1904 33.6256C13.2723 33.8753 13.5181 34.0001 13.7639 34.0001H14.9518C15.2796 34.0001 15.5663 33.7088 15.5663 33.3759V32.169C15.5253 31.961 15.4024 31.7113 15.1567 31.628Z" fill="#666666"/>
<path d="M14.9108 18.2278H13.7229C13.4771 18.2278 13.2313 18.3942 13.1494 18.6023C13.0674 18.852 13.1084 19.1017 13.2723 19.2682L14.4602 20.475C14.5831 20.5999 14.747 20.6415 14.9108 20.6415C14.9927 20.6415 15.0747 20.6415 15.1566 20.5999C15.4024 20.5166 15.5253 20.267 15.5253 20.0173V18.8104C15.5253 18.5191 15.2795 18.2278 14.9108 18.2278Z" fill="#666666"/>
<path d="M15.3205 22.6389L11.4699 18.7271C11.306 18.5606 11.1831 18.4357 11.0193 18.3525C10.9374 18.2693 10.8145 18.2693 10.6916 18.2693H5.24337C5.03855 18.2693 4.83374 18.2693 4.66988 18.3109C4.54699 18.3525 4.46506 18.3941 4.34217 18.4774L0.491566 22.3892C0.327711 22.5557 0.204819 22.6805 0.122892 22.847C0.0409639 22.9302 0 23.0135 0 23.1383V28.7148C0 28.9229 0 29.131 0.0409639 29.2974C0.0819277 29.4223 0.122892 29.5471 0.204819 29.6304L4.05542 33.5422C4.21928 33.7087 4.34217 33.8336 4.50602 33.9168C4.58795 34 4.71084 34.0416 4.83374 34.0416H10.2819C10.5687 34.0416 10.7325 34 10.8554 34C10.9783 33.9584 11.1012 33.9168 11.1831 33.8336L15.3205 29.6304C15.4434 29.5055 15.4843 29.3391 15.4843 29.1726V23.5129C15.4843 23.2632 15.4843 23.0967 15.4434 22.9302C15.4843 22.8054 15.4024 22.7222 15.3205 22.6389Z" fill="#666666"/>
<path d="M18.8435 2.41371C18.9254 2.45532 19.0073 2.45532 19.0893 2.45532C19.2531 2.45532 19.417 2.37209 19.5399 2.28886L20.7278 1.08201C20.8917 0.915545 20.9736 0.624235 20.8507 0.416157C20.7278 0.166463 20.482 0 20.2362 0H19.0483C18.7206 0 18.4338 0.29131 18.4338 0.624235V1.83109C18.4748 2.08078 18.5977 2.28886 18.8435 2.41371Z" fill="#666666"/>
<path d="M19.0892 15.7723H20.2771C20.5229 15.7723 20.7687 15.6058 20.8506 15.3977C20.9326 15.1481 20.8916 14.8984 20.7277 14.7319L19.5398 13.525C19.3759 13.3586 19.0892 13.2754 18.8844 13.4002C18.6386 13.4834 18.5157 13.7331 18.5157 13.9828V15.1897C18.4747 15.5226 18.7205 15.7723 19.0892 15.7723Z" fill="#666666"/>
<path d="M33.6314 13.4003C33.3856 13.317 33.1398 13.3586 32.976 13.5251L31.788 14.732C31.6242 14.8984 31.5422 15.1897 31.6651 15.3978C31.7471 15.6475 31.9928 15.7724 32.2386 15.7724H33.4266C33.7543 15.7724 34.041 15.481 34.041 15.1481V13.9413C34.0001 13.7332 33.8362 13.4835 33.6314 13.4003Z" fill="#666666"/>
<path d="M33.3857 0H32.1977C31.9519 0 31.7061 0.166463 31.6242 0.374541C31.5423 0.624235 31.5833 0.873929 31.7471 1.04039L32.9351 2.24725C33.058 2.37209 33.2218 2.41371 33.3857 2.41371C33.4676 2.41371 33.5495 2.41371 33.6314 2.37209C33.8363 2.28886 34.0001 2.08078 34.0001 1.83109V0.624235C34.0001 0.29131 33.7134 0 33.3857 0Z" fill="#666666"/>
<path d="M33.7953 4.41126L29.9447 0.499388C29.7808 0.332925 29.6579 0.208078 29.4941 0.124847C29.3712 0.0416157 29.2483 0 29.1254 0H23.6772C23.4724 0 23.2676 0 23.1037 0.0416157C22.9808 0.0832313 22.8579 0.124847 22.776 0.208078L18.9254 4.11995C18.7615 4.28641 18.6387 4.41126 18.5567 4.57772C18.4748 4.66096 18.4338 4.7858 18.4338 4.91065V10.4455C18.4338 10.6536 18.4338 10.8617 18.4748 11.0282C18.5158 11.153 18.5567 11.2778 18.6387 11.3611L22.4893 15.273C22.6531 15.4394 22.776 15.5643 22.9399 15.6475C23.0218 15.7307 23.1447 15.7723 23.2676 15.7723H28.7158C29.0025 15.7723 29.1664 15.7307 29.2893 15.7307C29.4121 15.6891 29.535 15.6475 29.617 15.5643L33.7543 11.3611C33.8772 11.2362 33.9182 11.0698 33.9182 10.9033V5.32681C33.9182 5.07711 33.9182 4.91065 33.8772 4.74419C33.9182 4.61934 33.8772 4.49449 33.7953 4.41126Z" fill="#666666"/>
<path d="M18.8433 20.5999C18.9252 20.6415 19.0071 20.6415 19.0891 20.6415C19.2529 20.6415 19.4168 20.5583 19.5397 20.475L20.7276 19.2682C20.8915 19.1017 20.9734 18.8104 20.8505 18.6023C20.7686 18.3526 20.5228 18.2278 20.277 18.2278H19.0891C18.7614 18.2278 18.4746 18.5191 18.4746 18.852V20.0589C18.4746 20.3086 18.5975 20.5166 18.8433 20.5999Z" fill="#666666"/>
<path d="M19.4987 31.7528C19.3349 31.5864 19.0481 31.5031 18.8433 31.628C18.5975 31.7112 18.4746 31.9609 18.4746 32.2106V33.4175C18.4746 33.7504 18.7614 34.0417 19.0891 34.0417H20.277C20.5228 34.0417 20.7686 33.8752 20.8505 33.6672C20.9324 33.4175 20.8915 33.1678 20.7276 33.0013L19.4987 31.7528Z" fill="#666666"/>
<path d="M33.6314 31.628C33.3856 31.5448 33.1398 31.5864 32.976 31.7529L31.788 32.9597C31.6242 33.1262 31.5422 33.4175 31.6651 33.6256C31.7471 33.8753 31.9928 34.0001 32.2386 34.0001H33.4266C33.7543 34.0001 34.041 33.7088 34.041 33.3759V32.169C34.0001 31.961 33.8362 31.7113 33.6314 31.628Z" fill="#666666"/>
<path d="M33.3857 18.2278H32.1977C31.9519 18.2278 31.7061 18.3942 31.6242 18.6023C31.5423 18.852 31.5833 19.1017 31.7471 19.2682L32.9351 20.475C33.058 20.5999 33.2218 20.6415 33.3857 20.6415C33.4676 20.6415 33.5495 20.6415 33.6314 20.5999C33.8772 20.5166 34.0001 20.267 34.0001 20.0173V18.8104C34.0001 18.5191 33.7134 18.2278 33.3857 18.2278Z" fill="#666666"/>
<path d="M33.7953 22.6389L29.9447 18.7271C29.7808 18.5606 29.6579 18.4357 29.4941 18.3525C29.4121 18.2693 29.2893 18.2693 29.1664 18.2693H23.6772C23.4724 18.2693 23.2676 18.2693 23.1037 18.3109C22.9808 18.3525 22.8579 18.3941 22.776 18.4774L18.9254 22.3892C18.7615 22.5557 18.6387 22.6805 18.5567 22.847C18.4748 22.9302 18.4338 23.0551 18.4338 23.1799V28.7148C18.4338 28.9229 18.4338 29.131 18.4748 29.2974C18.5158 29.4223 18.5567 29.5471 18.6387 29.6304L22.4893 33.5422C22.6531 33.7087 22.776 33.8336 22.9399 33.9168C23.0218 34 23.1447 34.0416 23.2676 34.0416H28.7158C29.0025 34.0416 29.1664 34 29.2893 34C29.4121 33.9584 29.535 33.9168 29.617 33.8336L33.7543 29.6304C33.8772 29.5055 33.9182 29.3391 33.9182 29.1726V23.5129C33.9182 23.3048 33.9182 23.0967 33.8772 22.9302C33.9182 22.8054 33.8772 22.7222 33.7953 22.6389Z" fill="#666666"/>
</svg>
