<svg width="144" height="201" viewBox="0 0 144 201" fill="none" xmlns="http://www.w3.org/2000/svg">
<g opacity="0.8" filter="url(#filter0_d)">
<circle cx="71.899" cy="67.899" r="66.899" fill="white"/>
<circle cx="71.899" cy="67.899" r="66.399" stroke="#DDDDDD"/>
</g>
<path d="M30.4193 87.2484C30.5751 88.0401 30.7308 88.733 30.9385 89.4752C35.1954 106.103 51.9637 116.742 72.0025 116.742C92.0413 116.742 108.862 106.103 113.118 89.4752C113.384 88.5669 113.575 87.6404 113.69 86.704C98.1672 81.5079 82.9564 72.5509 72.885 65.9197C62.4503 72.7983 46.5127 82.1512 30.4193 87.2484Z" fill="#FFE45C"/>
<path d="M112.184 29.8928C112.553 29.9331 112.907 30.0514 113.222 30.2392C112.907 30.0514 112.553 29.9331 112.184 29.8928Z" fill="#FFE45C"/>
<g style="mix-blend-mode:multiply" opacity="0.3">
<path style="mix-blend-mode:multiply" opacity="0.3" d="M30.4193 87.248C30.575 88.0398 30.7307 88.7326 30.9384 89.4749C35.1953 106.102 51.9636 116.742 72.0024 116.742C92.0413 116.742 108.861 106.102 113.118 89.4749C113.384 88.5666 113.574 87.64 113.689 86.7036C98.1671 81.5076 82.9563 72.5505 72.885 65.9193C62.4502 72.7979 46.5126 82.1509 30.4193 87.248Z" fill="url(#paint0_radial)"/>
<path style="mix-blend-mode:multiply" opacity="0.3" d="M112.184 29.8928C112.553 29.9331 112.908 30.0514 113.223 30.2392C112.908 30.0514 112.553 29.9331 112.184 29.8928Z" fill="url(#paint1_radial)"/>
</g>
<g style="mix-blend-mode:multiply">
<path d="M77.5054 68.8389L71.2237 116.742L64.5268 57.8529H64.994C65.0583 58.7504 65.3288 59.6234 65.7863 60.4101C66.2439 61.1969 66.8773 61.8782 67.6417 62.4056C69.1472 63.4943 70.9642 64.682 72.885 65.9687C74.8058 67.2553 75.8441 67.8492 77.5054 68.8389Z" fill="#FFE45C"/>
</g>
<path d="M78.1283 62.3569C76.6228 63.4456 74.8058 64.6333 72.885 65.9199C62.4503 72.7986 46.5126 82.1515 30.4192 87.2486C30.0422 85.2062 29.8512 83.1366 29.8482 81.0628L29.8482 31.3289C29.8667 30.9952 29.9675 30.6704 30.1422 30.3807C30.317 30.0911 30.5608 29.8447 30.854 29.6616C31.1472 29.4785 31.4815 29.3638 31.8299 29.3267C32.1783 29.2897 32.5309 29.3314 32.8592 29.4484C47.9143 34.397 62.8656 42.9087 72.885 49.2925C74.7539 50.4802 76.519 51.5689 78.0245 52.6081C78.8654 53.1396 79.557 53.8594 80.0387 54.7046C80.5205 55.5497 80.7777 56.4945 80.7879 57.4563C80.7982 58.4181 80.5611 59.3676 80.0975 60.2219C79.6339 61.0762 78.9578 61.8092 78.1283 62.3569Z" fill="#7ADADE"/>
<path d="M114.209 31.8721V81.1112C114.218 82.9865 114.045 84.8586 113.689 86.7032C100.399 82.2494 87.3172 75.0243 77.5054 68.8385C75.8442 67.8488 74.3386 66.8591 72.8851 65.9188C71.4315 64.9786 69.1472 63.4445 67.6417 62.3558C66.8773 61.8283 66.2439 61.1471 65.7864 60.3603C65.3289 59.5735 65.0584 58.7005 64.9941 57.803C64.9463 56.7846 65.1743 55.7717 65.6562 54.8616C66.1381 53.9516 66.8576 53.1751 67.7456 52.607C69.2511 51.5677 71.0161 50.479 72.8851 49.2419C82.4891 43.155 96.6617 35.0887 111.094 30.0411C112.599 29.4968 114.209 30.4865 114.209 31.8721Z" fill="url(#paint2_linear)"/>
<g style="mix-blend-mode:multiply" opacity="0.3">
<path style="mix-blend-mode:multiply" opacity="0.3" d="M111.924 30.388C112.143 30.3746 112.362 30.4024 112.569 30.4698C112.775 30.5372 112.966 30.643 113.13 30.7809C113.294 30.9188 113.428 31.0863 113.524 31.2736C113.62 31.461 113.676 31.6645 113.689 31.8726V81.1117C113.682 82.7689 113.544 84.4231 113.274 86.0603C99.6727 81.3591 86.4865 73.9361 77.765 68.4431L73.1965 65.5234L67.9532 61.9604C67.1879 61.459 66.5639 60.7858 66.1361 60.0002C65.7082 59.2145 65.4898 58.3406 65.5001 57.4555C65.5103 56.5704 65.749 55.7013 66.1949 54.9248C66.6408 54.1484 67.2803 53.4885 68.057 53.0034L73.1965 49.6878C82.593 43.7494 96.8174 35.5841 111.25 30.487L111.924 30.388ZM111.924 29.8932C111.64 29.8941 111.359 29.9444 111.094 30.0416C96.6617 35.0892 82.4891 43.1555 72.8851 49.2424C71.0161 50.4795 69.2511 51.5682 67.7456 52.6075C66.8576 53.1756 66.1381 53.9521 65.6562 54.8621C65.1743 55.7722 64.9463 56.7852 64.9941 57.8035C65.0584 58.701 65.3289 59.574 65.7864 60.3608C66.2439 61.1476 66.8773 61.8288 67.6417 62.3563C69.1472 63.445 70.9642 64.6327 72.8851 65.9193C74.8059 67.206 75.8442 67.8493 77.5054 68.839C87.3172 75.0248 100.399 82.2499 113.689 86.7037C114.045 84.8591 114.218 82.987 114.209 81.1117V31.8726C114.195 31.5996 114.126 31.3317 114.004 31.0844C113.882 30.837 113.709 30.6151 113.497 30.4312C113.285 30.2473 113.037 30.1052 112.767 30.0128C112.497 29.9205 112.211 29.8798 111.924 29.8932Z" fill="url(#paint3_linear)"/>
</g>
<path style="mix-blend-mode:overlay" opacity="0.3" d="M111.924 31.3777C112.288 31.3777 112.651 31.5757 112.651 31.8726V81.1117C112.661 82.3023 112.592 83.4924 112.444 84.6747C99.3612 80.023 86.7461 72.8969 78.336 67.6019L73.7676 64.6822L68.5762 61.1686C67.981 60.7795 67.4884 60.2642 67.1371 59.6632C66.7858 59.0622 66.5854 58.3918 66.5515 57.7046C66.5096 56.9369 66.6793 56.1721 67.0436 55.4862C67.4079 54.8004 67.9541 54.2173 68.6281 53.7951L73.7676 50.4795C83.1121 44.5906 97.2327 36.4749 111.613 31.4272H111.924V31.3777ZM111.924 29.9426C111.64 29.9436 111.359 29.9939 111.094 30.0911C96.6617 35.0892 82.4891 43.1555 72.8851 49.2424C71.0161 50.4795 69.2511 51.5682 67.7456 52.6075C66.8576 53.1756 66.1381 53.9521 65.6562 54.8621C65.1743 55.7722 64.9463 56.7852 64.9941 57.8035C65.0584 58.701 65.3289 59.574 65.7864 60.3608C66.2439 61.1476 66.8773 61.8288 67.6417 62.3563C69.1472 63.445 70.9642 64.6327 72.8851 65.9193C74.8059 67.206 75.8442 67.8493 77.5054 68.839C87.3172 75.0248 100.399 82.2499 113.689 86.7037C114.045 84.8591 114.218 82.987 114.209 81.1117V31.8726C114.195 31.5996 114.126 31.3317 114.004 31.0844C113.882 30.837 113.709 30.6151 113.497 30.4312C113.285 30.2473 113.037 30.1052 112.767 30.0128C112.497 29.9205 112.211 29.8798 111.924 29.8932V29.9426Z" fill="url(#paint4_linear)"/>
<path d="M78.1283 62.3564C76.6228 63.4452 74.8058 64.6328 72.885 65.9195C70.9122 64.6328 69.1472 63.4452 67.6417 62.3564C66.8666 61.8391 66.2254 61.1602 65.7666 60.3713C65.3079 59.5825 65.0437 58.7044 64.994 57.8037C64.9512 56.786 65.1814 55.7748 65.6629 54.8655C66.1443 53.9563 66.8611 53.1792 67.7455 52.6076C69.251 51.5684 70.9642 50.4797 72.885 49.2425L78.0245 52.6076C78.8654 53.1391 79.557 53.8589 80.0387 54.7041C80.5204 55.5492 80.7777 56.494 80.7879 57.4558C80.7982 58.4176 80.5611 59.3671 80.0975 60.2214C79.6338 61.0757 78.9578 61.8087 78.1283 62.3564Z" fill="#EA4A46"/>
<path d="M78.1283 62.3564C76.6228 63.4452 74.8058 64.6328 72.885 65.9195C70.9122 64.6328 69.1472 63.4452 67.6417 62.3564C66.8666 61.8391 66.2254 61.1602 65.7666 60.3713C65.3079 59.5825 65.0437 58.7044 64.994 57.8037C64.9512 56.786 65.1814 55.7748 65.6629 54.8655C66.1443 53.9563 66.8611 53.1792 67.7455 52.6076C69.251 51.5684 70.9642 50.4797 72.885 49.2425L78.0245 52.6076C78.8654 53.1391 79.557 53.8589 80.0387 54.7041C80.5204 55.5492 80.7777 56.494 80.7879 57.4558C80.7982 58.4176 80.5611 59.3671 80.0975 60.2214C79.6338 61.0757 78.9578 61.8087 78.1283 62.3564Z" fill="#86403D"/>
<g style="mix-blend-mode:overlay" opacity="0.24">
<path style="mix-blend-mode:overlay" opacity="0.24" d="M32.0805 30.0406L32.5996 30.1395C47.6028 35.0882 62.5541 43.5999 72.4697 49.8847L77.5573 53.2003C78.3019 53.6622 78.9154 54.2921 79.3434 55.0342C79.7715 55.7763 80.0008 56.6076 80.0111 57.4544C80.0214 58.3012 79.8123 59.1373 79.4023 59.8886C78.9924 60.6399 78.3943 61.2832 77.6611 61.7614C75.9479 62.9986 74.1828 64.1863 72.4178 65.275C62.1907 72.0546 46.7722 81.1106 31.0422 86.3067C30.771 84.5701 30.6322 82.8169 30.6269 81.0611V31.3272C30.6532 30.9771 30.8179 30.6496 31.0877 30.4108C31.3575 30.172 31.7123 30.0397 32.0805 30.0406ZM32.0805 29.2983C31.7941 29.2917 31.5092 29.339 31.2421 29.4374C30.9749 29.5358 30.7307 29.6834 30.5233 29.8719C30.316 30.0603 30.1497 30.2858 30.0339 30.5355C29.918 30.7852 29.8549 31.0543 29.8482 31.3272V81.0611C29.8512 83.1349 30.0422 85.2046 30.4192 87.247C46.5126 82.1499 62.4503 72.7969 72.885 65.9183C74.8058 64.6316 76.6228 63.444 78.1283 62.3553C78.9578 61.8075 79.6339 61.0745 80.0975 60.2202C80.5611 59.3659 80.7982 58.4164 80.7879 57.4546C80.7777 56.4928 80.5205 55.548 80.0387 54.7029C79.557 53.8578 78.8654 53.138 78.0245 52.6064C76.519 51.5672 74.7539 50.4785 72.885 49.2908C62.8656 42.9071 47.9143 34.3954 32.8592 29.4467L32.0805 29.2983Z" fill="url(#paint5_linear)"/>
</g>
<path style="mix-blend-mode:multiply" opacity="0.2" d="M32.0805 30.7829H32.3401C47.2394 35.7315 62.1388 44.2432 72.0024 50.4785L77.1419 53.7941C77.7765 54.1982 78.2976 54.7443 78.6597 55.3847C79.0218 56.0251 79.2137 56.7403 79.2189 57.4677C79.224 58.1952 79.0421 58.9127 78.6891 59.5577C78.3361 60.2027 77.8227 60.7554 77.1939 61.1676L72.0024 64.6811C61.983 71.3123 46.9798 80.1209 31.6652 85.2675C31.4981 83.871 31.4114 82.4667 31.4056 81.0611V31.3272C31.4122 31.2491 31.4348 31.1731 31.4724 31.1034C31.5099 31.0337 31.5615 30.9717 31.6242 30.9212C31.6869 30.8706 31.7595 30.8323 31.8379 30.8086C31.9162 30.7848 31.9986 30.7761 32.0805 30.7829ZM32.0805 29.2983C31.7941 29.2917 31.5092 29.339 31.2421 29.4374C30.9749 29.5358 30.7307 29.6834 30.5233 29.8719C30.316 30.0603 30.1497 30.2858 30.0339 30.5355C29.918 30.7852 29.8549 31.0543 29.8482 31.3272V81.0611C29.8512 83.1349 30.0422 85.2046 30.4192 87.247C46.5126 82.1499 62.4503 72.7969 72.885 65.9183C74.8058 64.6316 76.6228 63.444 78.1283 62.3553C78.9578 61.8075 79.6339 61.0745 80.0975 60.2202C80.5611 59.3659 80.7982 58.4164 80.7879 57.4546C80.7777 56.4928 80.5205 55.548 80.0387 54.7029C79.557 53.8578 78.8654 53.138 78.0245 52.6064C76.519 51.5672 74.7539 50.4785 72.885 49.2908C62.8656 42.9071 47.9143 34.3954 32.8592 29.4467L32.0805 29.2983Z" fill="url(#paint6_linear)"/>
<g style="mix-blend-mode:multiply" opacity="0.9">
<path style="mix-blend-mode:multiply" opacity="0.4" d="M30.4193 87.248C30.575 88.0398 30.7307 88.7326 30.9384 89.4749C35.1953 106.102 51.9636 116.742 72.0024 116.742C92.0413 116.742 108.861 106.102 113.118 89.4749C113.384 88.5666 113.574 87.64 113.689 86.7036C98.1671 81.5076 82.9563 72.5505 72.885 65.9193C62.4502 72.7979 46.5126 82.1509 30.4193 87.248Z" fill="url(#paint7_radial)"/>
<path style="mix-blend-mode:multiply" opacity="0.4" d="M112.184 29.8928C112.553 29.9331 112.908 30.0514 113.223 30.2392C112.908 30.0514 112.553 29.9331 112.184 29.8928Z" fill="url(#paint8_radial)"/>
</g>
<path d="M31.5796 193.108C32.3144 194.04 32.6981 195.216 32.6593 196.418C32.6796 197.049 32.5587 197.676 32.3063 198.25C32.0538 198.824 31.6765 199.33 31.204 199.728C30.1425 200.61 28.8071 201.06 27.4484 200.994H25.8523C23.0461 201.022 20.2915 200.21 17.9185 198.657C15.5138 197.106 13.5654 194.9 12.285 192.281C10.899 189.466 10.2055 186.339 10.2664 183.179V160.497H6.1821C5.08506 160.553 4.00908 160.17 3.17759 159.426C2.79425 159.084 2.4898 158.657 2.28668 158.177C2.08356 157.697 1.98695 157.175 2.00395 156.651C1.97912 156.105 2.0715 155.559 2.27445 155.054C2.47739 154.549 2.78585 154.097 3.17759 153.731C4.00192 152.969 5.07869 152.568 6.1821 152.611H10.2664V139.372C10.2383 138.145 10.6767 136.956 11.4869 136.062C12.3649 135.248 13.5014 134.798 14.6792 134.798C15.8571 134.798 16.9936 135.248 17.8715 136.062C18.2815 136.499 18.6011 137.017 18.811 137.587C19.0209 138.156 19.1165 138.763 19.0921 139.372V152.611H26.6503C27.7537 152.568 28.8305 152.969 29.6548 153.731C30.0391 154.104 30.3424 154.557 30.5448 155.06C30.7471 155.564 30.8438 156.106 30.8285 156.651C30.8328 157.174 30.7304 157.691 30.5281 158.169C30.3259 158.647 30.0282 159.075 29.6548 159.426C28.8233 160.17 27.7474 160.553 26.6503 160.497H19.0921V183.179C19.0176 185.417 19.7169 187.609 21.0638 189.36C21.6226 190.13 22.3458 190.754 23.1767 191.185C24.0075 191.616 24.9233 191.841 25.8523 191.843H28.8568C29.3713 191.841 29.8804 191.952 30.35 192.171C30.8196 192.389 31.2388 192.709 31.5796 193.108Z" fill="#323239"/>
<path d="M87.8213 152.127C88.2519 152.569 88.5881 153.095 88.8088 153.674C89.0295 154.253 89.13 154.871 89.104 155.491V195.905C89.1263 196.517 89.0239 197.128 88.8032 197.698C88.5825 198.268 88.2483 198.787 87.8213 199.221C87.3936 199.655 86.8814 199.995 86.317 200.218C85.7527 200.442 85.1486 200.544 84.5431 200.518C83.938 200.541 83.3347 200.437 82.7708 200.214C82.2069 199.991 81.6943 199.653 81.265 199.221C80.8222 198.796 80.4744 198.281 80.2449 197.709C80.0155 197.137 79.9097 196.522 79.9347 195.905V194.896C78.0103 196.87 75.6951 198.409 73.1409 199.413C69.9911 200.631 66.6215 201.158 63.2552 200.959C59.8889 200.76 56.6028 199.84 53.6146 198.26C50.2925 196.48 47.5897 193.713 45.8705 190.331C44.0177 186.871 43.115 182.69 43.115 177.788V155.491C43.115 154.885 43.233 154.285 43.4622 153.726C43.6914 153.166 44.0273 152.657 44.4508 152.229C44.8744 151.8 45.3772 151.461 45.9305 151.229C46.4839 150.997 47.0769 150.878 47.6759 150.878C48.2748 150.878 48.8679 150.997 49.4213 151.229C49.9746 151.461 50.4774 151.8 50.9009 152.229C51.3245 152.657 51.6604 153.166 51.8896 153.726C52.1188 154.285 52.2368 154.885 52.2368 155.491V177.788C52.2368 182.69 53.567 186.39 56.1325 188.889C58.698 191.388 62.2137 192.637 66.4896 192.637C68.8737 192.682 71.2343 192.155 73.3784 191.1C75.3278 190.179 76.9883 188.733 78.1769 186.919C79.3522 185.198 79.9667 183.148 79.9347 181.056V155.491C79.9059 154.867 80.0098 154.243 80.2392 153.663C80.4687 153.083 80.8185 152.559 81.265 152.127C81.6943 151.695 82.2069 151.357 82.7708 151.134C83.3347 150.911 83.938 150.807 84.5431 150.83C85.1486 150.804 85.7527 150.906 86.317 151.13C86.8814 151.353 87.3936 151.693 87.8213 152.127Z" fill="#323239"/>
<path d="M141.372 197.154C141.382 197.664 141.285 198.171 141.088 198.64C140.891 199.11 140.599 199.531 140.23 199.876C139.849 200.257 139.394 200.554 138.894 200.746C138.394 200.938 137.861 201.023 137.328 200.994C135.853 200.994 134.806 200.507 134.092 199.535L119.818 182.086L106.257 199.535C105.849 199.997 105.349 200.366 104.792 200.617C104.234 200.869 103.631 200.997 103.022 200.994C102.495 201.025 101.968 200.942 101.476 200.749C100.984 200.556 100.537 200.258 100.167 199.876C99.4972 199.137 99.1384 198.16 99.1674 197.154C99.1578 195.903 99.598 194.692 100.405 193.751L114.346 175.962L99.5005 158.076C98.6531 157.115 98.1792 155.87 98.1682 154.576C98.1568 154.089 98.2438 153.604 98.4239 153.153C98.604 152.701 98.8733 152.292 99.215 151.952C99.5931 151.565 100.048 151.265 100.548 151.073C101.049 150.88 101.584 150.798 102.117 150.834C102.767 150.811 103.412 150.939 104.006 151.208C104.599 151.478 105.125 151.882 105.543 152.389L120.246 170.373L133.426 152.389C133.822 151.881 134.33 151.475 134.909 151.204C135.488 150.934 136.121 150.807 136.757 150.834C137.287 150.809 137.816 150.9 138.308 151.101C138.8 151.302 139.245 151.609 139.612 152C140.288 152.754 140.647 153.749 140.611 154.771C140.63 156.111 140.193 157.417 139.374 158.465L125.813 176.497L140.087 193.946C140.498 194.368 140.822 194.869 141.043 195.419C141.263 195.97 141.375 196.559 141.372 197.154Z" fill="#323239"/>
<defs>
<filter id="filter0_d" x="0" y="0" width="143.798" height="143.798" filterUnits="userSpaceOnUse" color-interpolation-filters="sRGB">
<feFlood flood-opacity="0" result="BackgroundImageFix"/>
<feColorMatrix in="SourceAlpha" type="matrix" values="0 0 0 0 0 0 0 0 0 0 0 0 0 0 0 0 0 0 127 0"/>
<feMorphology radius="1" operator="dilate" in="SourceAlpha" result="effect1_dropShadow"/>
<feOffset dy="4"/>
<feGaussianBlur stdDeviation="2"/>
<feColorMatrix type="matrix" values="0 0 0 0 0 0 0 0 0 0 0 0 0 0 0 0 0 0 0.15 0"/>
<feBlend mode="normal" in2="BackgroundImageFix" result="effect1_dropShadow"/>
<feBlend mode="normal" in="SourceGraphic" in2="effect1_dropShadow" result="shape"/>
</filter>
<radialGradient id="paint0_radial" cx="0" cy="0" r="1" gradientUnits="userSpaceOnUse" gradientTransform="translate(86.8654 67.3228) scale(90.9016 57.1895)">
<stop stop-color="#EA4A46"/>
<stop offset="0.09" stop-color="#ED605C"/>
<stop offset="0.38" stop-color="#F4A3A1"/>
<stop offset="0.62" stop-color="#FAD5D4"/>
<stop offset="0.81" stop-color="#FEF4F3"/>
<stop offset="0.91" stop-color="white"/>
</radialGradient>
<radialGradient id="paint1_radial" cx="0" cy="0" r="1" gradientUnits="userSpaceOnUse" gradientTransform="translate(112.413 30.0561) scale(0.373788 0.356312)">
<stop stop-color="white"/>
<stop offset="1"/>
</radialGradient>
<linearGradient id="paint2_linear" x1="70.0557" y1="88.356" x2="149.663" y2="8.87706" gradientUnits="userSpaceOnUse">
<stop offset="0.12" stop-color="#EA4A46"/>
<stop offset="0.22" stop-color="#EC5748"/>
<stop offset="0.41" stop-color="#F17B4D"/>
<stop offset="0.67" stop-color="#F8B455"/>
<stop offset="0.86" stop-color="#FFE45C"/>
</linearGradient>
<linearGradient id="paint3_linear" x1="80.7812" y1="77.5932" x2="122.62" y2="40.7659" gradientUnits="userSpaceOnUse">
<stop/>
<stop offset="0.09" stop-color="#292929"/>
<stop offset="0.28" stop-color="#919191"/>
<stop offset="0.47" stop-color="white"/>
</linearGradient>
<linearGradient id="paint4_linear" x1="80.7812" y1="77.5932" x2="122.62" y2="40.7659" gradientUnits="userSpaceOnUse">
<stop/>
<stop offset="0.09" stop-color="#292929"/>
<stop offset="0.28" stop-color="#919191"/>
<stop offset="0.47" stop-color="white"/>
</linearGradient>
<linearGradient id="paint5_linear" x1="65.0667" y1="37.5378" x2="20.8848" y2="76.4254" gradientUnits="userSpaceOnUse">
<stop offset="0.13" stop-color="white"/>
<stop offset="0.22" stop-color="#FCFCFC"/>
<stop offset="0.29" stop-color="#F1F1F1"/>
<stop offset="0.36" stop-color="#E0E0E0"/>
<stop offset="0.43" stop-color="#C7C7C7"/>
<stop offset="0.5" stop-color="#A7A7A7"/>
<stop offset="0.56" stop-color="#818181"/>
<stop offset="0.62" stop-color="#525252"/>
<stop offset="0.68" stop-color="#1E1E1E"/>
<stop offset="0.71"/>
</linearGradient>
<linearGradient id="paint6_linear" x1="65.0667" y1="37.5378" x2="20.8848" y2="76.4254" gradientUnits="userSpaceOnUse">
<stop offset="0.13" stop-color="white"/>
<stop offset="0.2" stop-color="#FAFAFA"/>
<stop offset="0.29" stop-color="#EBEBEB"/>
<stop offset="0.39" stop-color="#D1D1D1"/>
<stop offset="0.5" stop-color="#AEAEAE"/>
<stop offset="0.62" stop-color="#818181"/>
<stop offset="0.73" stop-color="#4A4A4A"/>
<stop offset="0.85" stop-color="#0A0A0A"/>
<stop offset="0.87"/>
</linearGradient>
<radialGradient id="paint7_radial" cx="0" cy="0" r="1" gradientUnits="userSpaceOnUse" gradientTransform="translate(86.8654 67.3228) scale(90.9016 57.1895)">
<stop stop-color="#EA4A46"/>
<stop offset="0.09" stop-color="#ED605C"/>
<stop offset="0.38" stop-color="#F4A3A1"/>
<stop offset="0.62" stop-color="#FAD5D4"/>
<stop offset="0.81" stop-color="#FEF4F3"/>
<stop offset="0.91" stop-color="white"/>
</radialGradient>
<radialGradient id="paint8_radial" cx="0" cy="0" r="1" gradientUnits="userSpaceOnUse" gradientTransform="translate(112.413 30.0561) scale(0.373788 0.356312)">
<stop stop-color="white"/>
<stop offset="1"/>
</radialGradient>
</defs>
</svg>
