<svg width="26" height="26" viewBox="0 0 26 26" fill="none" xmlns="http://www.w3.org/2000/svg">
<path d="M26 13C26 20.1933 20.1933 26 13 26C5.80667 26 0 20.1933 0 13C0 5.80667 5.80667 0 13 0C20.1933 0 26 5.80667 26 13ZM11.2667 6.15333L12.0467 14.3C12.1333 14.6467 12.22 15.34 12.9133 15.34H13.1733C13.8667 15.34 14.04 14.6467 14.1267 14.2133L14.7333 6.24C14.82 5.63333 14.7333 5.2 14.4733 4.85333C14.2133 4.50667 13.78 4.33333 13.3467 4.33333H12.74C12.22 4.33333 11.8733 4.50667 11.6133 4.76667C11.2667 5.11333 11.18 5.63333 11.2667 6.15333ZM14.82 19.6733C14.82 18.6333 14.2133 18.0267 13.1733 18.0267H12.8267C11.7867 18.0267 11.18 18.6333 11.18 19.6733V19.9333C11.18 20.9733 11.7867 21.58 12.8267 21.58H13.1733C14.2133 21.58 14.82 20.9733 14.82 19.9333V19.6733Z" fill="#FFE45C"/>
</svg>
