<svg width="362" height="246" viewBox="0 0 362 246" fill="none" xmlns="http://www.w3.org/2000/svg">
<path d="M0 40C0 17.9086 17.9086 0 40 0H322C344.091 0 362 17.9086 362 40V168C362 190.091 344.091 208 322 208H40C17.9086 208 0 190.091 0 168V40Z" fill="#FFE45C"/>
<path d="M117.514 95.152V112H113.41V95.152H117.514ZM124.758 105.28C124.758 103.904 125.014 102.696 125.526 101.656C126.054 100.616 126.766 99.816 127.662 99.256C128.558 98.696 129.558 98.416 130.662 98.416C131.542 98.416 132.342 98.6 133.062 98.968C133.798 99.336 134.374 99.832 134.79 100.456V94.24H138.894V112H134.79V110.08C134.406 110.72 133.854 111.232 133.134 111.616C132.43 112 131.606 112.192 130.662 112.192C129.558 112.192 128.558 111.912 127.662 111.352C126.766 110.776 126.054 109.968 125.526 108.928C125.014 107.872 124.758 106.656 124.758 105.28ZM134.79 105.304C134.79 104.28 134.502 103.472 133.926 102.88C133.366 102.288 132.678 101.992 131.862 101.992C131.046 101.992 130.35 102.288 129.774 102.88C129.214 103.456 128.934 104.256 128.934 105.28C128.934 106.304 129.214 107.12 129.774 107.728C130.35 108.32 131.046 108.616 131.862 108.616C132.678 108.616 133.366 108.32 133.926 107.728C134.502 107.136 134.79 106.328 134.79 105.304ZM145.967 100.84C146.447 100.104 147.047 99.528 147.767 99.112C148.487 98.68 149.287 98.464 150.167 98.464V102.808H149.039C148.015 102.808 147.247 103.032 146.735 103.48C146.223 103.912 145.967 104.68 145.967 105.784V112H141.863V98.608H145.967V100.84ZM154.193 97.216C153.473 97.216 152.881 97.008 152.417 96.592C151.969 96.16 151.745 95.632 151.745 95.008C151.745 94.368 151.969 93.84 152.417 93.424C152.881 92.992 153.473 92.776 154.193 92.776C154.897 92.776 155.473 92.992 155.921 93.424C156.385 93.84 156.617 94.368 156.617 95.008C156.617 95.632 156.385 96.16 155.921 96.592C155.473 97.008 154.897 97.216 154.193 97.216ZM156.233 98.608V112H152.129V98.608H156.233ZM165.231 108.16L168.135 98.608H172.503L167.751 112H162.687L157.935 98.608H162.327L165.231 108.16ZM186.854 105.088C186.854 105.472 186.83 105.872 186.782 106.288H177.494C177.558 107.12 177.822 107.76 178.286 108.208C178.766 108.64 179.35 108.856 180.038 108.856C181.062 108.856 181.774 108.424 182.174 107.56H186.542C186.318 108.44 185.91 109.232 185.318 109.936C184.742 110.64 184.014 111.192 183.134 111.592C182.254 111.992 181.27 112.192 180.182 112.192C178.87 112.192 177.702 111.912 176.678 111.352C175.654 110.792 174.854 109.992 174.278 108.952C173.702 107.912 173.414 106.696 173.414 105.304C173.414 103.912 173.694 102.696 174.254 101.656C174.83 100.616 175.63 99.816 176.654 99.256C177.678 98.696 178.854 98.416 180.182 98.416C181.478 98.416 182.63 98.688 183.638 99.232C184.646 99.776 185.43 100.552 185.99 101.56C186.566 102.568 186.854 103.744 186.854 105.088ZM182.654 104.008C182.654 103.304 182.414 102.744 181.934 102.328C181.454 101.912 180.854 101.704 180.134 101.704C179.446 101.704 178.862 101.904 178.382 102.304C177.918 102.704 177.63 103.272 177.518 104.008H182.654ZM193.289 105.28C193.289 103.904 193.545 102.696 194.057 101.656C194.585 100.616 195.297 99.816 196.193 99.256C197.089 98.696 198.089 98.416 199.193 98.416C200.137 98.416 200.961 98.608 201.665 98.992C202.385 99.376 202.937 99.88 203.321 100.504V98.608H207.425V112H203.321V110.104C202.921 110.728 202.361 111.232 201.641 111.616C200.937 112 200.113 112.192 199.169 112.192C198.081 112.192 197.089 111.912 196.193 111.352C195.297 110.776 194.585 109.968 194.057 108.928C193.545 107.872 193.289 106.656 193.289 105.28ZM203.321 105.304C203.321 104.28 203.033 103.472 202.457 102.88C201.897 102.288 201.209 101.992 200.393 101.992C199.577 101.992 198.881 102.288 198.305 102.88C197.745 103.456 197.465 104.256 197.465 105.28C197.465 106.304 197.745 107.12 198.305 107.728C198.881 108.32 199.577 108.616 200.393 108.616C201.209 108.616 201.897 108.32 202.457 107.728C203.033 107.136 203.321 106.328 203.321 105.304ZM214.664 105.304C214.664 103.912 214.944 102.696 215.504 101.656C216.08 100.616 216.872 99.816 217.88 99.256C218.904 98.696 220.072 98.416 221.384 98.416C223.064 98.416 224.464 98.856 225.584 99.736C226.72 100.616 227.464 101.856 227.816 103.456H223.448C223.08 102.432 222.368 101.92 221.312 101.92C220.56 101.92 219.96 102.216 219.512 102.808C219.064 103.384 218.84 104.216 218.84 105.304C218.84 106.392 219.064 107.232 219.512 107.824C219.96 108.4 220.56 108.688 221.312 108.688C222.368 108.688 223.08 108.176 223.448 107.152H227.816C227.464 108.72 226.72 109.952 225.584 110.848C224.448 111.744 223.048 112.192 221.384 112.192C220.072 112.192 218.904 111.912 217.88 111.352C216.872 110.792 216.08 109.992 215.504 108.952C214.944 107.912 214.664 106.696 214.664 105.304ZM229.195 105.28C229.195 103.904 229.451 102.696 229.963 101.656C230.491 100.616 231.203 99.816 232.099 99.256C232.995 98.696 233.995 98.416 235.099 98.416C236.043 98.416 236.867 98.608 237.571 98.992C238.291 99.376 238.843 99.88 239.227 100.504V98.608H243.331V112H239.227V110.104C238.827 110.728 238.267 111.232 237.547 111.616C236.843 112 236.019 112.192 235.075 112.192C233.987 112.192 232.995 111.912 232.099 111.352C231.203 110.776 230.491 109.968 229.963 108.928C229.451 107.872 229.195 106.656 229.195 105.28ZM239.227 105.304C239.227 104.28 238.939 103.472 238.363 102.88C237.803 102.288 237.115 101.992 236.299 101.992C235.483 101.992 234.787 102.288 234.211 102.88C233.651 103.456 233.371 104.256 233.371 105.28C233.371 106.304 233.651 107.12 234.211 107.728C234.787 108.32 235.483 108.616 236.299 108.616C237.115 108.616 237.803 108.32 238.363 107.728C238.939 107.136 239.227 106.328 239.227 105.304ZM250.405 100.84C250.885 100.104 251.485 99.528 252.205 99.112C252.925 98.68 253.725 98.464 254.605 98.464V102.808H253.477C252.453 102.808 251.685 103.032 251.173 103.48C250.661 103.912 250.405 104.68 250.405 105.784V112H246.301V98.608H250.405V100.84Z" fill="black"/>
<path d="M54.5 175L23 245.5L103.5 205L54.5 175Z" fill="#FFE45C"/>
</svg>
