<svg width="1042" height="3436" viewBox="0 0 1042 3436" fill="none" xmlns="http://www.w3.org/2000/svg">
<path d="M0 5.00003C0 2.2386 2.23858 0 5 0H1037C1039.76 0 1042 2.23858 1042 5V3431C1042 3433.76 1039.76 3436 1037 3436H5.00001C2.23858 3436 0 3433.76 0 3431V5.00003Z" fill="white"/>
<rect x="0.5" y="0.5" width="1041" height="3435" rx="4.5" fill="white" stroke="#DDDDDD"/>
<path d="M26.6621 37.8833L22.9821 34.2513L26.6621 30.6193H28.9661L25.2701 34.2513L28.9661 37.8833H26.6621ZM38.3629 34.3153C38.9603 34.422 39.4669 34.7367 39.8829 35.2593C40.2989 35.782 40.5069 36.374 40.5069 37.0353C40.5069 37.6007 40.3576 38.1127 40.0589 38.5713C39.7709 39.0193 39.3496 39.3767 38.7949 39.6433C38.2403 39.8993 37.5949 40.0273 36.8589 40.0273H32.4109V28.9073H36.6509C37.4083 28.9073 38.0589 29.0353 38.6029 29.2913C39.1469 29.5473 39.5576 29.894 39.8349 30.3313C40.1123 30.758 40.2509 31.238 40.2509 31.7713C40.2509 32.4113 40.0803 32.9447 39.7389 33.3713C39.3976 33.798 38.9389 34.1127 38.3629 34.3153ZM34.2349 33.5793H36.4909C37.0883 33.5793 37.5523 33.446 37.8829 33.1793C38.2243 32.902 38.3949 32.5073 38.3949 31.9953C38.3949 31.494 38.2243 31.1047 37.8829 30.8273C37.5523 30.5393 37.0883 30.3953 36.4909 30.3953H34.2349V33.5793ZM36.6989 38.5393C37.3176 38.5393 37.8029 38.39 38.1549 38.0913C38.5069 37.7927 38.6829 37.3767 38.6829 36.8433C38.6829 36.2993 38.4963 35.8673 38.1229 35.5473C37.7496 35.2273 37.2536 35.0673 36.6349 35.0673H34.2349V38.5393H36.6989ZM41.8811 35.5793C41.8811 34.694 42.0624 33.91 42.4251 33.2273C42.7984 32.5447 43.2997 32.0167 43.9291 31.6433C44.5691 31.2593 45.2731 31.0673 46.0411 31.0673C46.7344 31.0673 47.3371 31.206 47.8491 31.4833C48.3717 31.75 48.7877 32.086 49.0971 32.4913V31.2113H50.9371V40.0273H49.0971V38.7153C48.7877 39.1313 48.3664 39.478 47.8331 39.7553C47.2997 40.0327 46.6917 40.1713 46.0091 40.1713C45.2517 40.1713 44.5584 39.9793 43.9291 39.5953C43.2997 39.2007 42.7984 38.6567 42.4251 37.9633C42.0624 37.2593 41.8811 36.4647 41.8811 35.5793ZM49.0971 35.6113C49.0971 35.0033 48.9691 34.4753 48.7131 34.0273C48.4677 33.5793 48.1424 33.238 47.7371 33.0033C47.3317 32.7687 46.8944 32.6513 46.4251 32.6513C45.9557 32.6513 45.5184 32.7687 45.1131 33.0033C44.7077 33.2273 44.3771 33.5633 44.1211 34.0113C43.8757 34.4487 43.7531 34.9713 43.7531 35.5793C43.7531 36.1873 43.8757 36.7207 44.1211 37.1793C44.3771 37.638 44.7077 37.99 45.1131 38.2353C45.5291 38.47 45.9664 38.5873 46.4251 38.5873C46.8944 38.5873 47.3317 38.47 47.7371 38.2353C48.1424 38.0007 48.4677 37.6593 48.7131 37.2113C48.9691 36.7527 49.0971 36.2193 49.0971 35.6113ZM52.7248 35.6113C52.7248 34.7047 52.9061 33.91 53.2688 33.2273C53.6421 32.534 54.1541 32.0007 54.8048 31.6273C55.4555 31.254 56.2021 31.0673 57.0448 31.0673C58.1115 31.0673 58.9915 31.3233 59.6848 31.8353C60.3888 32.3367 60.8635 33.0567 61.1088 33.9953H59.1408C58.9808 33.558 58.7248 33.2167 58.3728 32.9713C58.0208 32.726 57.5781 32.6033 57.0448 32.6033C56.2981 32.6033 55.7008 32.87 55.2528 33.4033C54.8155 33.926 54.5968 34.662 54.5968 35.6113C54.5968 36.5607 54.8155 37.302 55.2528 37.8353C55.7008 38.3687 56.2981 38.6353 57.0448 38.6353C58.1008 38.6353 58.7995 38.1713 59.1408 37.2433H61.1088C60.8528 38.1393 60.3728 38.854 59.6688 39.3873C58.9648 39.91 58.0901 40.1713 57.0448 40.1713C56.2021 40.1713 55.4555 39.9847 54.8048 39.6113C54.1541 39.2273 53.6421 38.694 53.2688 38.0113C52.9061 37.318 52.7248 36.518 52.7248 35.6113ZM66.4146 35.6273L70.4786 40.0273H68.0146L64.7506 36.2353V40.0273H62.9266V28.1873H64.7506V35.0673L67.9506 31.2113H70.4786L66.4146 35.6273Z" fill="black"/>
<rect width="1042" height="9.37923" fill="#78D6DA"/>
</svg>
