<svg width="46" height="34" viewBox="0 0 46 34" fill="none" xmlns="http://www.w3.org/2000/svg">
<path d="M37.5834 14.9167C37.5834 6.85418 31.0625 0.333344 23 0.333344C19.807 0.334933 16.7029 1.38595 14.1658 3.3246C11.6286 5.26324 9.79889 7.98206 8.95837 11.0625C6.4363 11.6423 4.1854 13.0603 2.57339 15.0847C0.96139 17.1092 0.0835811 19.6205 0.083374 22.2083C0.083374 28.5417 5.20837 33.6667 11.5417 33.6667H36.5417C41.7292 33.6458 45.9167 29.4375 45.9167 24.25C45.9167 19.3958 42.2709 15.4583 37.5834 14.9167ZM25.0834 19.0833V25.3333C25.0834 26.4792 24.1459 27.4167 23 27.4167C21.8542 27.4167 20.9167 26.4792 20.9167 25.3333V19.0833H17.1875C16.25 19.0833 15.7917 17.9583 16.4584 17.3125L22.2709 11.5C22.6875 11.0833 23.3334 11.0833 23.75 11.5L29.5625 17.3125C29.7053 17.4581 29.8022 17.6424 29.8412 17.8425C29.8802 18.0427 29.8596 18.2498 29.7819 18.4384C29.7043 18.6269 29.573 18.7885 29.4044 18.9032C29.2358 19.0178 29.0373 19.0805 28.8334 19.0833H25.0834Z" fill="#3C8582"/>
</svg>
