<svg width="50" height="36" viewBox="0 0 50 36" fill="none" xmlns="http://www.w3.org/2000/svg">
<path d="M41.4492 15.1924C41.1566 15.1257 40.8893 14.9761 40.6794 14.7616C40.4695 14.547 40.3258 14.2765 40.2656 13.9824C39.5156 10.4004 37.8779 7.32716 35.4629 4.99805C32.652 2.29577 28.8991 0.794488 25 0.812508C21.5332 0.812508 18.3359 1.95411 15.7539 4.11329C13.9907 5.60253 12.5883 7.47237 11.6523 9.58204C11.5514 9.80836 11.398 10.0074 11.205 10.1628C11.0119 10.3182 10.7847 10.4254 10.542 10.4756C7.90527 11.0244 5.55469 12.169 3.78613 13.7832C1.30762 16.0352 0 19.1152 0 22.6875C0 26.2031 1.4043 29.4141 3.9541 31.7295C6.41016 33.96 9.72266 35.1875 13.2812 35.1875H38.6719C41.833 35.1875 44.5537 34.3506 46.542 32.7686C48.8047 30.9668 50 28.292 50 25.0313C50 19.4092 45.8984 16.1856 41.4492 15.1924ZM32.1523 14.3193L21.625 26.8193C21.4808 26.9905 21.3016 27.1286 21.0994 27.2245C20.8973 27.3204 20.6769 27.3717 20.4531 27.375H20.4268C20.2081 27.375 19.9918 27.3292 19.7919 27.2403C19.5921 27.1515 19.4131 27.0217 19.2666 26.8594L14.7842 21.8916C14.2207 21.2676 14.2158 20.2969 14.8135 19.7041C14.9635 19.555 15.1423 19.4378 15.3389 19.3598C15.5356 19.2818 15.746 19.2446 15.9575 19.2503C16.169 19.2561 16.3771 19.3047 16.5692 19.3933C16.7614 19.4819 16.9335 19.6085 17.0752 19.7656L20.3857 23.4356L29.7607 12.3027C29.893 12.1458 30.0548 12.0164 30.237 11.922C30.4193 11.8275 30.6183 11.7699 30.8228 11.7524C31.0273 11.7349 31.2332 11.7579 31.4288 11.82C31.6244 11.882 31.8059 11.982 31.9629 12.1143C32.1199 12.2465 32.2493 12.4083 32.3437 12.5906C32.4381 12.7728 32.4957 12.9718 32.5132 13.1763C32.5307 13.3808 32.5078 13.5867 32.4457 13.7823C32.3836 13.978 32.2836 14.1594 32.1514 14.3164L32.1523 14.3193Z" fill="#B4C8CE"/>
</svg>
