<svg width="46" height="34" viewBox="0 0 46 34" fill="none" xmlns="http://www.w3.org/2000/svg">
<path d="M37.5833 14.9167C37.5833 6.85421 31.0625 0.333374 23 0.333374C19.8069 0.334963 16.7029 1.38598 14.1657 3.32463C11.6285 5.26327 9.79886 7.98209 8.95834 11.0625C6.43627 11.6423 4.18537 13.0603 2.57336 15.0848C0.96136 17.1092 0.0835506 19.6205 0.0833435 22.2084C0.0833435 28.5417 5.20834 33.6667 11.5417 33.6667H36.5417C41.7292 33.6459 45.9167 29.4375 45.9167 24.25C45.9167 19.3959 42.2708 15.4584 37.5833 14.9167ZM25.0833 19.0834V25.3334C25.0833 26.4792 24.1458 27.4167 23 27.4167C21.8542 27.4167 20.9167 26.4792 20.9167 25.3334V19.0834H17.1875C16.25 19.0834 15.7917 17.9584 16.4583 17.3125L22.2708 11.5C22.6875 11.0834 23.3333 11.0834 23.75 11.5L29.5625 17.3125C29.7053 17.4581 29.8021 17.6424 29.8411 17.8426C29.8801 18.0427 29.8596 18.2499 29.7819 18.4384C29.7043 18.627 29.573 18.7886 29.4044 18.9032C29.2358 19.0179 29.0372 19.0805 28.8333 19.0834H25.0833Z" fill="white"/>
</svg>
