<svg width="11" height="9" viewBox="0 0 11 9" fill="none" xmlns="http://www.w3.org/2000/svg">
<path d="M4.38379 8.23558L0.216539 1.91241C-0.275259 1.16844 0.124436 4.24127e-07 0.870823 4.24127e-07H9.20533C9.37237 -0.000189694 9.53592 0.0635406 9.67638 0.18356C9.81683 0.303579 9.92825 0.474799 9.99729 0.676716C10.0663 0.878633 10.0901 1.10269 10.0656 1.32205C10.0412 1.54141 9.9697 1.74678 9.85962 1.91356L5.69236 8.23442C5.61081 8.35831 5.51023 8.45761 5.39738 8.52564C5.28453 8.59368 5.16202 8.62888 5.03808 8.62888C4.91414 8.62888 4.79163 8.59368 4.67878 8.52564C4.56593 8.45761 4.46535 8.35831 4.38379 8.23442V8.23558Z" fill="#1B9BA0"/>
</svg>
