<svg width="11" height="9" viewBox="0 0 11 9" fill="none" xmlns="http://www.w3.org/2000/svg">
<path d="M4.38379 0.393299L0.216539 6.71529C-0.275259 7.46157 0.124436 8.62885 0.870823 8.62885H9.20533C9.37237 8.62903 9.53592 8.5653 9.67638 8.44529C9.81683 8.32527 9.92825 8.15405 9.99729 7.95213C10.0663 7.75021 10.0901 7.52616 10.0656 7.3068C10.0412 7.08744 9.9697 6.88207 9.85962 6.71529L5.69236 0.394452C5.61081 0.270562 5.51023 0.171267 5.39738 0.103233C5.28453 0.0351985 5.16202 0 5.03808 0C4.91414 0 4.79163 0.0351985 4.67878 0.103233C4.56593 0.171267 4.46535 0.270562 4.38379 0.394452V0.393299Z" fill="#1B9BA0"/>
</svg>
