<svg width="46" height="34" viewBox="0 0 46 34" fill="none" xmlns="http://www.w3.org/2000/svg">
<path d="M37.5833 14.9166C37.5833 6.85408 31.0625 0.333252 23 0.333252C19.8069 0.334841 16.7029 1.38585 14.1657 3.3245C11.6285 5.26315 9.79886 7.98196 8.95834 11.0624C6.43627 11.6422 4.18537 13.0602 2.57336 15.0846C0.96136 17.1091 0.0835506 19.6204 0.0833435 22.2082C0.0833435 28.5416 5.20834 33.6666 11.5417 33.6666H36.5417C41.7292 33.6457 45.9167 29.4374 45.9167 24.2499C45.9167 19.3957 42.2708 15.4583 37.5833 14.9166ZM25.0833 19.0832V25.3332C25.0833 26.4791 24.1458 27.4166 23 27.4166C21.8542 27.4166 20.9167 26.4791 20.9167 25.3332V19.0832H17.1875C16.25 19.0832 15.7917 17.9582 16.4583 17.3124L22.2708 11.4999C22.6875 11.0833 23.3333 11.0833 23.75 11.4999L29.5625 17.3124C29.7053 17.458 29.8021 17.6423 29.8411 17.8424C29.8801 18.0426 29.8596 18.2498 29.7819 18.4383C29.7043 18.6268 29.573 18.7885 29.4044 18.9031C29.2358 19.0177 29.0372 19.0804 28.8333 19.0832H25.0833Z" fill="#666666"/>
</svg>
