<svg width="20" height="20" viewBox="0 0 20 20" fill="none" xmlns="http://www.w3.org/2000/svg">
<path fill-rule="evenodd" clip-rule="evenodd" d="M7.955 3.125C7.955 2.95924 8.02085 2.80027 8.13806 2.68306C8.25527 2.56585 8.41424 2.5 8.58 2.5H16.875C17.3723 2.5 17.8492 2.69754 18.2008 3.04917C18.5525 3.40081 18.75 3.87772 18.75 4.375V16.875C18.75 17.3723 18.5525 17.8492 18.2008 18.2008C17.8492 18.5525 17.3723 18.75 16.875 18.75H4.375C3.87772 18.75 3.40081 18.5525 3.04917 18.2008C2.69754 17.8492 2.5 17.3723 2.5 16.875V8.58C2.5 8.41424 2.56585 8.25527 2.68306 8.13806C2.80027 8.02085 2.95924 7.955 3.125 7.955C3.29076 7.955 3.44973 8.02085 3.56694 8.13806C3.68415 8.25527 3.75 8.41424 3.75 8.58V16.875C3.75 17.0408 3.81585 17.1997 3.93306 17.3169C4.05027 17.4342 4.20924 17.5 4.375 17.5H16.875C17.0408 17.5 17.1997 17.4342 17.3169 17.3169C17.4342 17.1997 17.5 17.0408 17.5 16.875V4.375C17.5 4.20924 17.4342 4.05027 17.3169 3.93306C17.1997 3.81585 17.0408 3.75 16.875 3.75H8.58C8.41424 3.75 8.25527 3.68415 8.13806 3.56694C8.02085 3.44973 7.955 3.29076 7.955 3.125Z" fill="#666666"/>
<path fill-rule="evenodd" clip-rule="evenodd" d="M13.7498 13.1248C13.7498 13.2906 13.684 13.4495 13.5668 13.5668C13.4495 13.684 13.2906 13.7498 13.1248 13.7498H6.87481C6.70905 13.7498 6.55008 13.684 6.43287 13.5668C6.31566 13.4495 6.24981 13.2906 6.24981 13.1248C6.24981 12.9591 6.31566 12.8001 6.43287 12.6829C6.55008 12.5657 6.70905 12.4998 6.87481 12.4998H11.6161L1.43231 2.31731C1.3742 2.2592 1.32811 2.19022 1.29666 2.11429C1.26521 2.03837 1.24902 1.95699 1.24902 1.87481C1.24902 1.79263 1.26521 1.71126 1.29666 1.63533C1.32811 1.55941 1.3742 1.49042 1.43231 1.43231C1.49042 1.3742 1.55941 1.32811 1.63533 1.29666C1.71126 1.26521 1.79263 1.24902 1.87481 1.24902C1.95699 1.24902 2.03837 1.26521 2.11429 1.29666C2.19022 1.32811 2.2592 1.3742 2.31731 1.43231L12.4998 11.6161V6.87481C12.4998 6.70905 12.5657 6.55008 12.6829 6.43287C12.8001 6.31566 12.9591 6.24981 13.1248 6.24981C13.2906 6.24981 13.4495 6.31566 13.5668 6.43287C13.684 6.55008 13.7498 6.70905 13.7498 6.87481V13.1248Z" fill="#666666"/>
</svg>
