<svg width="46" height="44" viewBox="0 0 46 44" fill="none" xmlns="http://www.w3.org/2000/svg">
<path d="M45.7492 22C45.7492 27.8348 43.3392 33.4305 39.0494 37.5564C34.7596 41.6822 28.9413 44 22.8746 44C16.8079 44 10.9896 41.6822 6.69982 37.5564C2.41 33.4305 0 27.8348 0 22C0 16.1652 2.41 10.5695 6.69982 6.44365C10.9896 2.31785 16.8079 0 22.8746 0C28.9413 0 34.7596 2.31785 39.0494 6.44365C43.3392 10.5695 45.7492 16.1652 45.7492 22ZM15.3088 12.7765C15.0404 12.5183 14.6763 12.3733 14.2966 12.3733C13.917 12.3733 13.5529 12.5183 13.2844 12.7765C13.016 13.0347 12.8652 13.3849 12.8652 13.75C12.8652 14.1151 13.016 14.4653 13.2844 14.7235L20.8531 22L13.2844 29.2765C13.1515 29.4043 13.0461 29.5561 12.9741 29.7231C12.9022 29.8902 12.8652 30.0692 12.8652 30.25C12.8652 30.4308 12.9022 30.6098 12.9741 30.7769C13.0461 30.9439 13.1515 31.0957 13.2844 31.2235C13.5529 31.4817 13.917 31.6267 14.2966 31.6267C14.4846 31.6267 14.6708 31.5911 14.8444 31.5219C15.0181 31.4528 15.1759 31.3513 15.3088 31.2235L22.8746 23.9443L30.4404 31.2235C30.5733 31.3513 30.7311 31.4528 30.9048 31.5219C31.0785 31.5911 31.2646 31.6267 31.4526 31.6267C31.6406 31.6267 31.8267 31.5911 32.0004 31.5219C32.1741 31.4528 32.3319 31.3513 32.4648 31.2235C32.5977 31.0957 32.7032 30.9439 32.7751 30.7769C32.847 30.6098 32.8841 30.4308 32.8841 30.25C32.8841 30.0692 32.847 29.8902 32.7751 29.7231C32.7032 29.5561 32.5977 29.4043 32.4648 29.2765L24.8962 22L32.4648 14.7235C32.5977 14.5957 32.7032 14.4439 32.7751 14.2769C32.847 14.1098 32.8841 13.9308 32.8841 13.75C32.8841 13.5692 32.847 13.3902 32.7751 13.2231C32.7032 13.0561 32.5977 12.9043 32.4648 12.7765C32.3319 12.6487 32.1741 12.5472 32.0004 12.4781C31.8267 12.4089 31.6406 12.3733 31.4526 12.3733C31.2646 12.3733 31.0785 12.4089 30.9048 12.4781C30.7311 12.5472 30.5733 12.6487 30.4404 12.7765L22.8746 20.0557L15.3088 12.7765Z" fill="#EA4A46"/>
</svg>
