<svg width="60" height="60" viewBox="0 0 60 60" fill="none" xmlns="http://www.w3.org/2000/svg">
<path d="M30 0C13.4274 0 0 13.4274 0 30C0 46.5726 13.4274 60 30 60C46.5726 60 60 46.5726 60 30C60 13.4274 46.5726 0 30 0ZM30 11.6129C35.879 11.6129 40.6452 16.379 40.6452 22.2581C40.6452 28.1371 35.879 32.9032 30 32.9032C24.121 32.9032 19.3548 28.1371 19.3548 22.2581C19.3548 16.379 24.121 11.6129 30 11.6129ZM30 53.2258C22.8992 53.2258 16.5363 50.0081 12.2782 44.9758C14.5524 40.6935 19.004 37.7419 24.1935 37.7419C24.4839 37.7419 24.7742 37.7903 25.0524 37.875C26.625 38.3831 28.2702 38.7097 30 38.7097C31.7298 38.7097 33.3871 38.3831 34.9476 37.875C35.2258 37.7903 35.5161 37.7419 35.8064 37.7419C40.996 37.7419 45.4476 40.6935 47.7218 44.9758C43.4637 50.0081 37.1008 53.2258 30 53.2258Z" fill="#333333"/>
</svg>
