<svg width="44" height="44" viewBox="0 0 44 44" fill="none" xmlns="http://www.w3.org/2000/svg">
<circle cx="22" cy="22" r="20" fill="white" stroke="#666666" stroke-width="4"/>
<path d="M25.6441 21.74C26.4974 21.94 27.1574 22.3533 27.6241 22.98C28.1041 23.5933 28.3441 24.3067 28.3441 25.12C28.3441 26.36 27.9307 27.32 27.1041 28C26.2907 28.6667 25.1174 29 23.5841 29H16.1641V14.84H23.3841C24.8241 14.84 25.9574 15.1533 26.7841 15.78C27.6107 16.4067 28.0241 17.32 28.0241 18.52C28.0241 19.3467 27.8041 20.0467 27.3641 20.62C26.9374 21.18 26.3641 21.5533 25.6441 21.74ZM20.6041 20.36H22.3241C22.7241 20.36 23.0174 20.28 23.2041 20.12C23.4041 19.96 23.5041 19.7133 23.5041 19.38C23.5041 19.0333 23.4041 18.78 23.2041 18.62C23.0174 18.4467 22.7241 18.36 22.3241 18.36H20.6041V20.36ZM22.6241 25.44C23.0241 25.44 23.3174 25.3667 23.5041 25.22C23.7041 25.06 23.8041 24.8067 23.8041 24.46C23.8041 23.78 23.4107 23.44 22.6241 23.44H20.6041V25.44H22.6241Z" fill="#666666"/>
</svg>
