<svg width="12" height="16" viewBox="0 0 12 16" fill="none" xmlns="http://www.w3.org/2000/svg">
<path d="M0 1.75C0 0.784 0.784 0 1.75 0H6.499C9.322 0 11.25 2.34 11.25 4.75C11.25 5.681 10.962 6.602 10.447 7.382C11.369 8.239 12 9.47 12 11C12 14.133 9.323 16 7 16H1.75C1.28587 16 0.840752 15.8156 0.512563 15.4874C0.184375 15.1592 0 14.7141 0 14.25V1.75ZM3.5 9.5V12.5H7C7.312 12.5 7.71 12.362 8.024 12.079C8.312 11.819 8.5 11.464 8.5 11C8.5 10.112 7.755 9.5 7 9.5H3.5ZM3.5 6H6.5C7.215 6 7.75 5.408 7.75 4.75C7.75 4.093 7.214 3.5 6.499 3.5H3.5V6Z" fill="#78D6DA"/>
</svg>
