<svg width="42" height="40" viewBox="0 0 42 40" fill="none" xmlns="http://www.w3.org/2000/svg">
<path d="M16.6667 0H25C26.1051 0 27.1649 0.438987 27.9463 1.22039C28.7277 2.00179 29.1667 3.0616 29.1667 4.16667V8.33333H37.5C38.6051 8.33333 39.6649 8.77232 40.4463 9.55372C41.2277 10.3351 41.6667 11.3949 41.6667 12.5V35.4167C41.6667 36.5217 41.2277 37.5815 40.4463 38.3629C39.6649 39.1443 38.6051 39.5833 37.5 39.5833H4.16667C3.0616 39.5833 2.00179 39.1443 1.22039 38.3629C0.438987 37.5815 0 36.5217 0 35.4167V12.5C0 10.1875 1.85417 8.33333 4.16667 8.33333H12.5V4.16667C12.5 1.85417 14.3542 0 16.6667 0ZM25 8.33333V4.16667H16.6667V8.33333H25ZM20.8333 14.5833L10.4167 25H16.6667V33.3333H25V25H31.25L20.8333 14.5833Z" fill="#78D6DA"/>
</svg>
