<svg width="44" height="42" viewBox="0 0 44 42" fill="none" xmlns="http://www.w3.org/2000/svg">
<path d="M25.168 0.166504C26.273 0.166504 27.3328 0.605491 28.1142 1.38689C28.8956 2.16829 29.3346 3.2281 29.3346 4.33317V8.49984H37.668C38.773 8.49984 39.8328 8.93882 40.6142 9.72023C41.3956 10.5016 41.8346 11.5614 41.8346 12.6665L18.6055 35.5832V39.7498H4.33464C3.22957 39.7498 2.16976 39.3109 1.38836 38.5294C0.606955 37.7481 0.167969 36.6882 0.167969 35.5832V12.6665C0.167969 10.354 2.02214 8.49984 4.33464 8.49984H12.668V4.33317C12.668 2.02067 14.5221 0.166504 16.8346 0.166504H25.168ZM25.168 8.49984V4.33317H16.8346V8.49984H25.168ZM39.8346 21.2707C39.543 21.2707 39.2513 21.3957 39.0221 21.6248L36.9388 23.7082L41.2096 27.979L43.293 25.8957C43.7513 25.4582 43.7513 24.729 43.293 24.2915L40.6263 21.6248C40.5249 21.5157 40.4025 21.4281 40.2665 21.3673C40.1305 21.3064 39.9836 21.2736 39.8346 21.2707ZM35.7305 24.9165L23.0846 37.5415V41.8332H27.3763L40.0013 29.1873L35.7305 24.9165Z" fill="#78D6DA"/>
</svg>
