<svg width="22" height="22" viewBox="0 0 22 22" fill="none" xmlns="http://www.w3.org/2000/svg">
<path d="M1.688 2.75152L2.7485 1.69027L5.3105 4.25152L4.25 5.31277L1.688 2.75152Z" fill="#888888" fill-opacity="0.5"/>
<path d="M16.6857 17.744L17.747 16.6835L20.3082 19.2455L19.247 20.306L16.6857 17.744Z" fill="#888888" fill-opacity="0.5"/>
<path d="M7.25 0.5H8.75V3.5H7.25V0.5Z" fill="#888888" fill-opacity="0.5"/>
<path d="M0.5 7.25H3.5V8.75H0.5V7.25Z" fill="#888888" fill-opacity="0.5"/>
<path d="M18.5 13.25H21.5V14.75H18.5V13.25Z" fill="#888888" fill-opacity="0.5"/>
<path d="M13.25 18.5H14.75V21.5H13.25V18.5Z" fill="#888888" fill-opacity="0.5"/>
<path d="M11.435 14.8025L8.65251 17.5925C8.37378 17.8712 8.04288 18.0923 7.6787 18.2432C7.31452 18.394 6.92419 18.4717 6.53001 18.4717C6.13582 18.4717 5.7455 18.394 5.38132 18.2432C5.01714 18.0923 4.68624 17.8712 4.40751 17.5925C3.84459 17.0296 3.52834 16.2661 3.52834 15.47C3.52834 14.6739 3.84459 13.9104 4.40751 13.3475L7.19751 10.5575L6.13251 9.5L3.35001 12.29C2.92301 12.7056 2.5828 13.2019 2.34913 13.75C2.11546 14.2982 1.99297 14.8872 1.98879 15.4831C1.9846 16.0789 2.0988 16.6697 2.32474 17.2211C2.55069 17.7724 2.88389 18.2734 3.30501 18.695C3.72549 19.1121 4.22416 19.442 4.77243 19.666C5.3207 19.8899 5.90778 20.0034 6.50001 20C7.10253 20.0006 7.69917 19.8815 8.25535 19.6498C8.81152 19.4181 9.31616 19.0782 9.74001 18.65L12.5 15.8675L11.435 14.8025Z" fill="#888888" fill-opacity="0.5"/>
<path d="M10.5575 7.19748L13.3475 4.40747C13.6262 4.12874 13.9571 3.90764 14.3213 3.75679C14.6855 3.60595 15.0758 3.52831 15.47 3.52831C15.8642 3.52831 16.2545 3.60595 16.6187 3.75679C16.9829 3.90764 17.3138 4.12874 17.5925 4.40747C17.8712 4.68621 18.0923 5.01711 18.2432 5.38129C18.394 5.74547 18.4717 6.13579 18.4717 6.52997C18.4717 6.92416 18.394 7.31448 18.2432 7.67866C18.0923 8.04284 17.8712 8.37374 17.5925 8.65247L14.8025 11.4425L15.8675 12.5L18.65 9.70997C19.077 9.29437 19.4172 8.7981 19.6509 8.24996C19.8845 7.70182 20.007 7.11273 20.0112 6.51688C20.0154 5.92103 19.9012 5.33028 19.6753 4.77891C19.4493 4.22754 19.1161 3.72654 18.695 3.30497C18.2745 2.88791 17.7758 2.55795 17.2276 2.334C16.6793 2.11006 16.0922 1.99655 15.5 1.99997C14.8975 1.9994 14.3008 2.11843 13.7447 2.35017C13.1885 2.5819 12.6838 2.92174 12.26 3.34998L9.5 6.13247L10.5575 7.19748Z" fill="#888888" fill-opacity="0.5"/>
</svg>
