<svg width="44" height="44" viewBox="0 0 44 44" fill="none" xmlns="http://www.w3.org/2000/svg">
<circle cx="22" cy="22" r="20" fill="white" stroke="#666666" stroke-width="4"/>
<path d="M15.0707 21.9C15.0707 20.5 15.3507 19.2533 15.9107 18.16C16.484 17.0667 17.2974 16.22 18.3507 15.62C19.404 15.0067 20.644 14.7 22.0707 14.7C23.2974 14.7 24.3907 14.9333 25.3507 15.4C26.324 15.8533 27.1107 16.5 27.7107 17.34C28.324 18.18 28.7307 19.16 28.9307 20.28H24.2507C24.0374 19.8133 23.7307 19.4533 23.3307 19.2C22.944 18.9333 22.4974 18.8 21.9907 18.8C21.244 18.8 20.6507 19.08 20.2107 19.64C19.784 20.2 19.5707 20.9533 19.5707 21.9C19.5707 22.8467 19.784 23.6 20.2107 24.16C20.6507 24.72 21.244 25 21.9907 25C22.4974 25 22.944 24.8733 23.3307 24.62C23.7307 24.3533 24.0374 23.9867 24.2507 23.52H28.9307C28.7307 24.64 28.324 25.62 27.7107 26.46C27.1107 27.3 26.324 27.9533 25.3507 28.42C24.3907 28.8733 23.2974 29.1 22.0707 29.1C20.644 29.1 19.404 28.8 18.3507 28.2C17.2974 27.5867 16.484 26.7333 15.9107 25.64C15.3507 24.5467 15.0707 23.3 15.0707 21.9Z" fill="#666666"/>
</svg>
