<svg width="44" height="44" viewBox="0 0 44 44" fill="none" xmlns="http://www.w3.org/2000/svg">
<circle cx="22" cy="22" r="20" fill="white" stroke="#666666" stroke-width="4"/>
<path d="M21.9684 14.84C23.4484 14.84 24.7417 15.14 25.8484 15.74C26.9684 16.34 27.8284 17.1733 28.4284 18.24C29.0284 19.3067 29.3284 20.52 29.3284 21.88C29.3284 23.2267 29.0284 24.44 28.4284 25.52C27.8284 26.6 26.9684 27.4533 25.8484 28.08C24.7417 28.6933 23.4484 29 21.9684 29H16.0684V14.84H21.9684ZM21.5684 25.04C22.5684 25.04 23.3617 24.7667 23.9484 24.22C24.535 23.6733 24.8284 22.8933 24.8284 21.88C24.8284 20.8667 24.535 20.0867 23.9484 19.54C23.3617 18.9933 22.5684 18.72 21.5684 18.72H20.5084V25.04H21.5684Z" fill="#666666"/>
</svg>
