<svg width="20" height="20" viewBox="0 0 20 20" fill="none" xmlns="http://www.w3.org/2000/svg">
<path d="M20 10C20 15.5333 15.5333 20 10 20C4.46667 20 0 15.5333 0 10C0 4.46667 4.46667 0 10 0C15.5333 0 20 4.46667 20 10ZM8.66667 4.73333L9.26667 11C9.33333 11.2667 9.4 11.8 9.93333 11.8H10.1333C10.6667 11.8 10.8 11.2667 10.8667 10.9333L11.3333 4.8C11.4 4.33333 11.3333 4 11.1333 3.73333C10.9333 3.46667 10.6 3.33333 10.2667 3.33333H9.8C9.4 3.33333 9.13333 3.46667 8.93333 3.66667C8.66667 3.93333 8.6 4.33333 8.66667 4.73333ZM11.4 15.1333C11.4 14.3333 10.9333 13.8667 10.1333 13.8667H9.86667C9.06667 13.8667 8.6 14.3333 8.6 15.1333V15.3333C8.6 16.1333 9.06667 16.6 9.86667 16.6H10.1333C10.9333 16.6 11.4 16.1333 11.4 15.3333V15.1333Z" fill="#EA4A46"/>
</svg>
