<svg width="20" height="20" viewBox="0 0 20 20" fill="none" xmlns="http://www.w3.org/2000/svg">
<path fill-rule="evenodd" clip-rule="evenodd" d="M0 10C0 4.477 4.477 0 10 0C15.523 0 20 4.477 20 10C20 15.523 15.523 20 10 20C4.477 20 0 15.523 0 10ZM8.207 6.793C8.0184 6.61084 7.7658 6.51005 7.5036 6.51233C7.2414 6.5146 6.99059 6.61977 6.80518 6.80518C6.61977 6.99059 6.5146 7.2414 6.51233 7.5036C6.51005 7.7658 6.61084 8.0184 6.793 8.207L8.586 10L6.793 11.793C6.69749 11.8852 6.62131 11.9956 6.5689 12.1176C6.51649 12.2396 6.4889 12.3708 6.48775 12.5036C6.4866 12.6364 6.5119 12.7681 6.56218 12.891C6.61246 13.0139 6.68671 13.1255 6.78061 13.2194C6.8745 13.3133 6.98615 13.3875 7.10905 13.4378C7.23194 13.4881 7.36362 13.5134 7.4964 13.5123C7.62918 13.5111 7.7604 13.4835 7.8824 13.4311C8.00441 13.3787 8.11475 13.3025 8.207 13.207L10 11.414L11.793 13.207C11.9816 13.3892 12.2342 13.49 12.4964 13.4877C12.7586 13.4854 13.0094 13.3802 13.1948 13.1948C13.3802 13.0094 13.4854 12.7586 13.4877 12.4964C13.49 12.2342 13.3892 11.9816 13.207 11.793L11.414 10L13.207 8.207C13.3892 8.0184 13.49 7.7658 13.4877 7.5036C13.4854 7.2414 13.3802 6.99059 13.1948 6.80518C13.0094 6.61977 12.7586 6.5146 12.4964 6.51233C12.2342 6.51005 11.9816 6.61084 11.793 6.793L10 8.586L8.207 6.793Z" fill="#999999"/>
</svg>
