<svg width="12" height="14" viewBox="0 0 12 14" fill="none" xmlns="http://www.w3.org/2000/svg">
<path d="M10.28 0.333293H5.40002C5.2983 0.323561 5.19566 0.335197 5.09869 0.367456C5.00173 0.399715 4.91257 0.451884 4.83695 0.520617C4.76133 0.589351 4.7009 0.673131 4.65956 0.766584C4.61821 0.860038 4.59685 0.961102 4.59685 1.06329C4.59685 1.16549 4.61821 1.26655 4.65956 1.36C4.7009 1.45346 4.76133 1.53724 4.83695 1.60597C4.91257 1.6747 5.00173 1.72687 5.09869 1.75913C5.19566 1.79139 5.2983 1.80303 5.40002 1.79329H6.82002L2.74002 12.0333H0.980024C0.878297 12.0236 0.775658 12.0352 0.678691 12.0675C0.581725 12.0997 0.492571 12.1519 0.416948 12.2206C0.341325 12.2894 0.280902 12.3731 0.239555 12.4666C0.198208 12.56 0.176849 12.6611 0.176849 12.7633C0.176849 12.8655 0.198208 12.9665 0.239555 13.06C0.280902 13.1535 0.341325 13.2372 0.416948 13.306C0.492571 13.3747 0.581725 13.4269 0.678691 13.4591C0.775658 13.4914 0.878297 13.503 0.980024 13.4933H5.86669C5.96842 13.503 6.07106 13.4914 6.16802 13.4591C6.26499 13.4269 6.35414 13.3747 6.42977 13.306C6.50539 13.2372 6.56581 13.1535 6.60716 13.06C6.64851 12.9665 6.66986 12.8655 6.66986 12.7633C6.66986 12.6611 6.64851 12.56 6.60716 12.4666C6.56581 12.3731 6.50539 12.2894 6.42977 12.2206C6.35414 12.1519 6.26499 12.0997 6.16802 12.0675C6.07106 12.0352 5.96842 12.0236 5.86669 12.0333H4.34002L8.42669 1.79329H10.28C10.3818 1.80303 10.4844 1.79139 10.5814 1.75913C10.6783 1.72687 10.7675 1.6747 10.8431 1.60597C10.9187 1.53724 10.9791 1.45346 11.0205 1.36C11.0618 1.26655 11.0832 1.16549 11.0832 1.06329C11.0832 0.961102 11.0618 0.860038 11.0205 0.766584C10.9791 0.673131 10.9187 0.589351 10.8431 0.520617C10.7675 0.451884 10.6783 0.399715 10.5814 0.367456C10.4844 0.335197 10.3818 0.323561 10.28 0.333293Z" fill="#78D6DA"/>
</svg>
