<svg width="19" height="16" viewBox="0 0 19 16" fill="none" xmlns="http://www.w3.org/2000/svg">
<path d="M5 1H19V3H5V1ZM5 9V7H19V9H5ZM2 0.5C2.39782 0.5 2.77936 0.658035 3.06066 0.93934C3.34196 1.22064 3.5 1.60218 3.5 2C3.5 2.39782 3.34196 2.77936 3.06066 3.06066C2.77936 3.34196 2.39782 3.5 2 3.5C1.60218 3.5 1.22064 3.34196 0.93934 3.06066C0.658035 2.77936 0.5 2.39782 0.5 2C0.5 1.60218 0.658035 1.22064 0.93934 0.93934C1.22064 0.658035 1.60218 0.5 2 0.5ZM2 6.5C2.39782 6.5 2.77936 6.65804 3.06066 6.93934C3.34196 7.22064 3.5 7.60218 3.5 8C3.5 8.39782 3.34196 8.77936 3.06066 9.06066C2.77936 9.34196 2.39782 9.5 2 9.5C1.60218 9.5 1.22064 9.34196 0.93934 9.06066C0.658035 8.77936 0.5 8.39782 0.5 8C0.5 7.60218 0.658035 7.22064 0.93934 6.93934C1.22064 6.65804 1.60218 6.5 2 6.5ZM5 15V13H19V15H5ZM2 12.5C2.39782 12.5 2.77936 12.658 3.06066 12.9393C3.34196 13.2206 3.5 13.6022 3.5 14C3.5 14.3978 3.34196 14.7794 3.06066 15.0607C2.77936 15.342 2.39782 15.5 2 15.5C1.60218 15.5 1.22064 15.342 0.93934 15.0607C0.658035 14.7794 0.5 14.3978 0.5 14C0.5 13.6022 0.658035 13.2206 0.93934 12.9393C1.22064 12.658 1.60218 12.5 2 12.5Z" fill="#78D6DA"/>
</svg>
