<svg width="44" height="44" viewBox="0 0 44 44" fill="none" xmlns="http://www.w3.org/2000/svg">
<path d="M30.7051 43.875H22V39.4111C22.0014 38.9983 21.9191 38.5895 21.7582 38.2093C21.5972 37.8292 21.3609 37.4856 21.0635 37.1992C20.3145 36.4609 19.2247 36.0459 18.0782 36.0625C17.0583 36.0721 16.0745 36.4411 15.2998 37.1045C14.792 37.5537 14.1875 38.3311 14.1875 39.4893V43.875H5.55668C4.1166 43.8735 2.73594 43.3007 1.71764 42.2824C0.699351 41.2641 0.126592 39.8834 0.125041 38.4434V29.8125H4.58891C5.48344 29.8125 6.35356 29.4297 7.0391 28.7383C7.4205 28.3538 7.72211 27.8978 7.92658 27.3963C8.13105 26.8949 8.23434 26.3579 8.23051 25.8164C8.20121 23.7471 6.49809 22 4.51078 22H0.125041V13.2754C0.122224 12.5643 0.263851 11.8601 0.541335 11.2054C0.818818 10.5508 1.22638 9.95926 1.7393 9.46681C2.76365 8.47875 4.13348 7.92997 5.55668 7.93751H11.7325V6.52345C11.7325 5.67361 11.9017 4.83229 12.2304 4.04858C12.559 3.26487 13.0405 2.55447 13.6467 1.95884C14.2529 1.36321 14.9716 0.894285 15.761 0.579429C16.5503 0.264574 17.3945 0.110095 18.2442 0.125009C21.71 0.185556 24.5293 3.09181 24.5293 6.60255V7.93751H30.7051C31.4108 7.92993 32.1108 8.06332 32.7643 8.32987C33.4177 8.59643 34.0113 8.99076 34.5103 9.48977C35.0093 9.98877 35.4036 10.5824 35.6702 11.2358C35.9367 11.8892 36.0701 12.5893 36.0625 13.2949V19.4707H37.3965C40.9688 19.4707 43.875 22.3027 43.875 25.7832C43.875 29.3584 41.0049 32.2676 37.4766 32.2676H36.0625V38.4434C36.0625 41.4385 33.6592 43.875 30.7051 43.875Z" fill="#78D6DA"/>
</svg>
