<svg width="14" height="15" viewBox="0 0 14 15" fill="none" xmlns="http://www.w3.org/2000/svg">
<path d="M1.83334 9.625H11.6544C11.789 9.62495 11.9208 9.58655 12.0343 9.51431C12.1479 9.44206 12.2385 9.33896 12.2956 9.21707C12.3527 9.09518 12.3738 8.95955 12.3566 8.82606C12.3394 8.69257 12.2845 8.56675 12.1984 8.46333L9.62501 5.375L12.1984 2.28667C12.2845 2.18325 12.3394 2.05743 12.3566 1.92394C12.3738 1.79045 12.3527 1.65482 12.2956 1.53293C12.2385 1.41104 12.1479 1.30794 12.0343 1.23569C11.9208 1.16345 11.789 1.12505 11.6544 1.125H1.83334V13.875" fill="#F37806"/>
<path d="M1.83334 9.625H11.6544C11.789 9.62495 11.9208 9.58655 12.0343 9.51431C12.1479 9.44206 12.2385 9.33896 12.2956 9.21707C12.3527 9.09518 12.3739 8.95955 12.3566 8.82606C12.3394 8.69257 12.2845 8.56675 12.1984 8.46333L9.62501 5.375L12.1984 2.28667C12.2845 2.18325 12.3394 2.05743 12.3566 1.92394C12.3739 1.79045 12.3527 1.65482 12.2956 1.53293C12.2385 1.41104 12.1479 1.30794 12.0343 1.23569C11.9208 1.16345 11.789 1.12505 11.6544 1.125H1.83334V13.875" stroke="#F37806" stroke-width="2" stroke-linecap="round" stroke-linejoin="round"/>
</svg>
