<svg width="143" height="143" viewBox="0 0 143 143" fill="none" xmlns="http://www.w3.org/2000/svg">
<path d="M71.5 0C52.537 0 34.3507 7.53302 20.9419 20.9419C7.53302 34.3507 0 52.537 0 71.5C0 90.463 7.53302 108.649 20.9419 122.058C34.3507 135.467 52.537 143 71.5 143C90.463 143 108.649 135.467 122.058 122.058C135.467 108.649 143 90.463 143 71.5C143 52.537 135.467 34.3507 122.058 20.9419C108.649 7.53302 90.463 0 71.5 0V0ZM71.5 15.8305L84.903 52.7544L124.161 54.0909L93.1864 78.2479L104.046 115.998L71.5 94.0036L38.9537 115.998L49.8136 78.2479L18.8389 54.0909L58.097 52.7544L71.5 15.8305Z" fill="#78D6DA"/>
</svg>
