<svg width="46" height="44" viewBox="0 0 46 44" fill="none" xmlns="http://www.w3.org/2000/svg">
<path d="M45.7492 22C45.7492 27.8348 43.3392 33.4305 39.0494 37.5564C34.7596 41.6822 28.9413 44 22.8746 44C16.8079 44 10.9896 41.6822 6.69982 37.5564C2.41 33.4305 0 27.8348 0 22C0 16.1652 2.41 10.5695 6.69982 6.44365C10.9896 2.31785 16.8079 0 22.8746 0C28.9413 0 34.7596 2.31785 39.0494 6.44365C43.3392 10.5695 45.7492 16.1652 45.7492 22ZM34.3977 13.6675C34.1935 13.4718 33.9503 13.3176 33.6827 13.2143C33.4151 13.1111 33.1286 13.0607 32.8403 13.0664C32.552 13.072 32.2679 13.1335 32.0049 13.2472C31.7419 13.3609 31.5054 13.5244 31.3096 13.728L21.3792 25.8967L15.3946 20.1383C14.9881 19.7739 14.4504 19.5756 13.8948 19.585C13.3393 19.5944 12.8092 19.8109 12.4163 20.1888C12.0234 20.5667 11.7983 21.0765 11.7885 21.6108C11.7787 22.1451 11.9849 22.6623 12.3637 23.0533L19.9295 30.3325C20.1333 30.5282 20.376 30.6824 20.6432 30.7858C20.9103 30.8893 21.1963 30.94 21.4843 30.9349C21.7722 30.9298 22.0561 30.8689 22.319 30.756C22.582 30.643 22.8186 30.4803 23.0147 30.2775L34.4292 16.555C34.8183 16.1659 35.0333 15.6455 35.0279 15.1056C35.0226 14.5658 34.7973 14.0494 34.4006 13.6675H34.3977Z" fill="#78C077"/>
</svg>
