<svg width="28" height="28" viewBox="0 0 28 28" fill="none" xmlns="http://www.w3.org/2000/svg">
<path d="M28 14C28 21.7467 21.7467 28 14 28C6.25333 28 0 21.7467 0 14C0 6.25333 6.25333 0 14 0C21.7467 0 28 6.25333 28 14ZM12.1333 6.62667L12.9733 15.4C13.0667 15.7733 13.16 16.52 13.9067 16.52H14.1867C14.9333 16.52 15.12 15.7733 15.2133 15.3067L15.8667 6.72C15.96 6.06667 15.8667 5.6 15.5867 5.22667C15.3067 4.85333 14.84 4.66667 14.3733 4.66667H13.72C13.16 4.66667 12.7867 4.85333 12.5067 5.13333C12.1333 5.50667 12.04 6.06667 12.1333 6.62667ZM15.96 21.1867C15.96 20.0667 15.3067 19.4133 14.1867 19.4133H13.8133C12.6933 19.4133 12.04 20.0667 12.04 21.1867V21.4667C12.04 22.5867 12.6933 23.24 13.8133 23.24H14.1867C15.3067 23.24 15.96 22.5867 15.96 21.4667V21.1867Z" fill="#ED605C"/>
</svg>
