<svg width="20" height="20" viewBox="0 0 20 20" fill="none" xmlns="http://www.w3.org/2000/svg">
<path d="M10 0C4.46667 0 0 4.46667 0 10C0 15.5333 4.46667 20 10 20C15.5333 20 20 15.5333 20 10C20 4.46667 15.5333 0 10 0ZM15.6667 5.73333L9.6 15.5333C9.4 15.8667 9 16.1333 8.6 16.1333C8.26667 16.1333 7.93333 15.9333 7.66667 15.6667L3.93333 11C3.66667 10.6 3.66667 10.0667 4 9.73333C4.4 9.33333 5 9.33333 5.33333 9.66667L8.53333 12.5333L14.2 4.73333C14.4667 4.33333 15.0667 4.26667 15.4667 4.53333C15.8667 4.73333 15.9333 5.33333 15.6667 5.73333Z" fill="#78C077"/>
</svg>
