<svg width="23" height="25" viewBox="0 0 23 25" fill="none" xmlns="http://www.w3.org/2000/svg">
<path d="M18.1666 25H4.67881C4.25732 25 3.83582 24.6667 3.83582 24.25L2.23414 5H1.30686C0.801063 5 0.463867 4.66667 0.463867 4.16667C0.463867 3.66667 0.801063 3.33333 1.30686 3.33333H7.37638L8.05077 0.666667C8.13507 0.25 8.47227 0 8.89376 0H13.9517C14.3732 0 14.7104 0.25 14.7947 0.666667L15.4691 3.33333H21.5386C22.0444 3.33333 22.3816 3.66667 22.3816 4.16667C22.3816 4.66667 22.0444 5 21.5386 5H20.6113L19.0096 24.25C19.0096 24.6667 18.5881 25 18.1666 25ZM5.4375 23.3333H17.408L18.9253 5H14.7947H8.05077H3.92012L5.4375 23.3333ZM9.14666 3.33333H13.6988L13.2773 1.66667H9.56815L9.14666 3.33333ZM14.7947 20C14.7947 20 14.7104 20 14.7947 20C14.2889 20 13.9517 19.5833 13.9517 19.0833L14.7947 9.08333C14.7947 8.66667 15.2162 8.25 15.722 8.33333C16.2278 8.33333 16.565 8.75 16.4807 9.25L15.6377 19.25C15.6377 19.6667 15.2162 20 14.7947 20ZM8.05077 20C7.62928 20 7.20778 19.6667 7.20778 19.25L6.36479 9.25C6.36479 8.75 6.70199 8.41667 7.12348 8.33333C7.62928 8.33333 7.96647 8.66667 8.05077 9.08333L8.89376 19.0833C8.89376 19.5833 8.55657 20 8.05077 20C8.13507 20 8.05077 20 8.05077 20ZM11.4227 20C10.9169 20 10.5797 19.6667 10.5797 19.1667V9.16667C10.5797 8.66667 10.9169 8.33333 11.4227 8.33333C11.9285 8.33333 12.2657 8.66667 12.2657 9.16667V19.1667C12.2657 19.6667 11.9285 20 11.4227 20Z" fill="#999999"/>
</svg>
